<?xml version="1.0" encoding="utf-8"?>
<!-- Generator: Adobe Illustrator 15.1.0, SVG Export Plug-In . SVG Version: 6.00 Build 0)  -->
<!DOCTYPE svg PUBLIC "-//W3C//DTD SVG 1.1//EN" "http://www.w3.org/Graphics/SVG/1.1/DTD/svg11.dtd">
<svg version="1.1" id="Layer_1" xmlns="http://www.w3.org/2000/svg" xmlns:xlink="http://www.w3.org/1999/xlink" x="0px" y="0px"
	 width="792px" height="612px" viewBox="0 0 792 612" enable-background="new 0 0 792 612" xml:space="preserve">
<linearGradient id="SVGID_1_" gradientUnits="userSpaceOnUse" x1="548.4111" y1="98.9614" x2="255.4998" y2="359.2224">
	<stop  offset="0" style="stop-color:#92278F"/>
	<stop  offset="1" style="stop-color:#ED1C24"/>
</linearGradient>
<polygon fill="url(#SVGID_1_)" points="401.379,45.291 411.811,33.808 420.965,46.334 432.557,36.025 440.328,49.455 
	452.952,40.436 459.249,54.615 472.761,46.989 477.515,61.757 491.761,55.61 494.919,70.801 509.737,66.204 511.265,81.643 
	526.487,78.647 526.364,94.162 541.819,92.8 540.046,108.213 555.56,108.503 552.157,123.64 567.55,125.577 562.562,140.268 
	577.661,143.829 571.138,157.906 585.774,163.052 577.792,176.356 591.798,183.029 582.446,195.409 595.663,203.533 585.05,214.849 
	597.329,224.332 585.573,234.455 596.774,245.19 584.007,254.006 594.003,265.871 580.374,273.279 589.052,286.141 574.71,292.058 
	581.974,305.769 567.085,310.13 572.849,324.532 557.581,327.284 561.782,342.221 546.308,343.336 548.897,358.633 533.392,358.096 
	534.343,373.581 518.979,371.397 518.278,386.898 503.237,383.099 500.89,398.434 486.337,393.054 482.376,408.054 468.478,401.158 
	462.944,415.652 449.856,407.317 442.813,421.143 430.688,411.463 422.213,424.463 411.186,413.55 401.379,425.572 391.571,413.55 
	380.542,424.463 372.068,411.463 359.942,421.143 352.898,407.317 339.812,415.652 334.277,401.158 320.379,408.054 
	316.417,393.054 301.865,398.434 299.519,383.099 284.478,386.898 283.775,371.397 268.415,373.581 269.365,358.096 
	253.859,358.633 256.448,343.336 240.974,342.221 245.174,327.284 229.906,324.532 235.671,310.13 220.781,305.769 228.044,292.058 
	213.703,286.141 222.382,273.279 208.751,265.871 218.748,254.006 205.982,245.19 217.183,234.455 205.426,224.332 217.706,214.849 
	207.091,203.533 220.308,195.409 210.957,183.029 224.964,176.356 216.981,163.052 231.617,157.906 225.093,143.829 
	240.194,140.267 235.205,125.577 250.598,123.64 247.198,108.502 262.709,108.213 260.937,92.8 276.392,94.162 276.269,78.647 
	291.492,81.643 293.017,66.204 307.835,70.801 310.994,55.61 325.24,61.757 329.995,46.989 343.506,54.615 349.804,40.436 
	362.429,49.455 370.198,36.025 381.792,46.334 390.945,33.808 "/>
<circle fill="none" stroke="#FFFFFF" stroke-width="0.9921" stroke-miterlimit="10" cx="401.029" cy="229.689" r="168.732"/>
<circle fill="none" stroke="#FFFFFF" stroke-width="4.252" stroke-miterlimit="10" cx="401.029" cy="229.69" r="159.605"/>
<defs>
	
	
		<inkscape:perspective  id="perspective2410" sodipodi:type="inkscape:persp3d" inkscape:vp_z="744.09448 : 526.18109 : 1" inkscape:vp_y="0 : 1000 : 0" inkscape:vp_x="0 : 526.18109 : 1" inkscape:persp3d-origin="372.04724 : 350.78739 : 1">
		</inkscape:perspective>
</defs>
<sodipodi:namedview  id="base" inkscape:cy="495" inkscape:cx="382.5" inkscape:zoom="0.47070707" showgrid="false" pagecolor="#ffffff" bordercolor="#666666" borderopacity="1.0" objecttolerance="10.0" gridtolerance="10.0" guidetolerance="10.0" inkscape:pageopacity="0.0" inkscape:pageshadow="2" inkscape:window-width="1920" inkscape:window-height="1028" inkscape:current-layer="g2412" inkscape:window-y="26" inkscape:window-x="0">
	</sodipodi:namedview>
<path id="path2436" fill="#FFFFFF" d="M411.811,124.659c-0.131-0.9-1.043-1.459-0.074-2.025c1.301-1.59,1.264-0.326,1.189,1.031
	C411.773,123.749,412.805,124.334,411.811,124.659"/>
<path id="path2438" fill="#FFFFFF" d="M412.859,124.222c0.029-0.251,0.029-0.298,0.252-0.372
	C413.111,124.148,413.148,124.111,412.859,124.222"/>
<path id="path2442" fill="#FFFFFF" d="M365.017,123.293c-0.557-0.726,0.055-2.418,0.873-2.474
	C365.89,121.815,365.695,122.568,365.017,123.293"/>
<path id="path2444" fill="#FFFFFF" d="M410.564,122.866c-0.688-0.512,0.354-0.828,0.27-0.111
	C410.75,122.791,410.658,122.828,410.564,122.866"/>
<path id="path2446" fill="#FFFFFF" d="M420.418,122.549c-0.41-0.205,1.078-3.04,1.078-1.543
	C421.17,121.741,421.105,122.206,420.418,122.549"/>
<path id="path2448" fill="#FFFFFF" d="M384.417,122.056c-1.219-0.399-5.699-2.185-5.607-3.123c1.063-0.474,5.736,2.203,6.1,3.123
	C384.751,122.056,384.583,122.056,384.417,122.056"/>
<path id="path2454" fill="#FFFFFF" d="M376.171,119.891c-1.523-1.088-0.875-2.269,0.893-1.516
	C377.064,118.868,376.693,119.797,376.171,119.891"/>
<path id="path2464" fill="#FFFFFF" d="M417.137,109.165c-0.717-0.41,0.725-0.8,0.695-0.104
	C417.693,109.127,417.693,109.127,417.137,109.165"/>
<path fill="#FFFFFF" d="M441.416,120.717c-1.246,0-2.826-0.613-3.561-1.645c0-0.65,1.859-1.794,0.102-1.664
	c-0.27,1.135-1.311,1.088-2.055,2.063c-1.719,1.478-2.824-0.734-3.123,2.324c-0.381,0.613-0.732,0.854-1.338,1.273
	c-0.242,0-2.863-0.549-1.682,0.241c0.102,0.27-1.264,1.023-1.535,1.246c-3.783,1.979-7.678,3.987-11.777,5.205
	c-2.908,0.391-1.059-1.961,0.195-2.604c4.221-1.486,8.469-3.41,12.457-5.446c0.314-0.093,0.771-0.148,1.004-0.381
	c0.148-3.606,4.229-0.167,5-3.802c-0.65-0.094-1.365,0.27-1.988,0.465c-2.91-0.121-3.18,0.344-4.807,2.695
	c-0.957,0.697-6.748,4.629-5.996,2.166c2.604-3.03,2.158-2.604,2.158-6.805c0.438-1.385,0.984-2.695,1.551-4.033
	c0.605-1.953,0.178-3.226,0.559-5.262c0.92-8.523-2.398-15.959-10.123-19.994c-5.381-1.533-12.742-1.803-18.107-0.558
	c-1.188,0.595-1.17,2.083-2.592,1.302c-3.467,0-9.426,6.116-9.584,9.379c-1.822,5.67,0.037,11.703,2.045,17.057
	c0,2.138-2.213,2.76-0.994,4.824c1.207,1.311,1.775,2.668,1.924,4.461c-0.633,0.633-4.201-1.719-2.834-0.102
	c0.453,0.279,4.795,3.402,3.42,3.913c-3.803-0.511-6.859-2.464-10.215-4.341c-1.59-1.459-2.354-0.744-4.268-0.985
	c-0.957-0.474-2.027-1.571-2.027,0.149c-0.465,0.846-3.41,2.277-4.154,0.929c0-3.467,3.709-1.097,3.783-2.417
	c-1.004-1.813,0.855-2.146,1.301-3.708c0.299-0.503,0.494-0.567,1.033-0.809c-0.438-2.631-3.002,1.552-3.197,2.537
	c-1.357,2.919-3.404,0.604-5.514,1.654c-0.045,0.493,1.219,0.103,1.357,1.19c-0.25,1.264-0.092,2.305,0.438,3.485
	c0.445,0.679,1.775,1.813,0.334,1.636c-2.258,1.246-2.23-2.286-3.643-2.565c-1.107,3.69,3.365,6.878,6.645,5.038
	c1.916-1.543-0.398-2.873,0.781-3.95c2.26-1.171,3.561-0.187,5.578,0.92c0.779,0,1.375-0.372,2.164-0.372
	c4.564,1.906,9.102,4.025,13.637,6.006c0.623,0.427,1.934,1.961,1.236,2.658c-2.416,1.18-4.881,2.314-7.27,3.484
	c-0.826,0.764-1.951,0.754-3.076,1.107c-2.406,1.115-5.828,1.199-7.846,2.639c0.633,0.633,5.486-1.031,6.238-1.635
	c1.729-0.084,3.244,0.371,4.527-0.688c2.045-1.022,4.869-2.481,7.176-2.481c2.315,1.71-5.363,3.793-6.441,4.154
	c-2.51,0.428-4.686,2.119-7.316,2.352c-0.873,0.242-9.063,4.221-9.063,1.023c0.809-1.256-1.375-0.205-1.375-1.413
	c0.734-1.032,5.697,0.195,5.984-1.246c-2.5,0.019-4.619,0.419-7.053-0.157c-1.646,0,0.584,1.729-1.191,1.729
	c-0.428,0.251-0.883,0.93-1.291,0.93c-1.377-1.293,0.967-2.789,0.111-2.789c-4.072,1.738,0.863,6.897,2.139,9.146
	c3.949,4.285,6.625-0.781,9.703-3.123c7.752-4.266,16.443-7.12,24.549-10.671c0.186-0.046,0.371-0.083,0.559-0.12
	c4.889,0,8.811,2.834,13.178,4.954c6.043,2.724,13.191,5.158,18.193,9.704c0.641,0.706,1.113,1.516,1.961,1.988
	c0.352-0.018,0.705-0.027,1.059-0.037c0.939-0.334,3.348-3.448,1.469-2.602c-0.986,0.129-1.943-1.488-1.041-1.99
	c3.152-0.465-1.896-1.617,0.93-2.602c1.701,0,2.24,0.817,1.691,2.137c-1.412,1.684-0.102,2.641,0.381,0.326
	c1.162-2.203-0.158-1.832-1.189-3.207c0.418-1.469,2.24,2.528,2.24,0.344c-0.361-0.836-2.604-1.59-3.43-1.701
	c-2.658-0.064-4.992-0.084-7.438-1.301c-0.891-0.335-2.518-1.264-3.596-1.264c0.334,1.459,8.301,3.494,9.779,3.494
	c1.309,0.465-0.559,1.664-1.135,2.055c-0.084,2.732-1.107,1.635-3.309,0.92c-6.451-3.337-13.051-5.801-19.65-9.054
	c-0.178-0.224-0.354-0.437-0.521-0.65c-1.756-1.051-3.596-1.775-0.203-1.831c0.873-0.874,4.182,0.789,5.529,0.66
	c-0.67-1.115-6.172-2.297-4.127-3.932c5.447-3.021,11.842-4.891,17.672-7.074c4.182-1.413,7.668-2.836,8.941,2.584
	c0.947,2.352,3.289,2.398,5.195,1.135C449.344,126.016,446.379,118.497,441.416,120.717z M369.376,147.051
	c-0.074,0.064-0.074,0.064-0.51,0.102c-1.154-0.706-2.557-2.463-0.086-1.756c-0.586-3.337,3.486-0.623,1.201,0.354
	C368.224,145.75,369.47,145.842,369.376,147.051z M370.353,148.762c-1.887-1.507,2.705-4.118,2.557-0.967
	C372.287,148.306,371.142,148.463,370.353,148.762z M423.791,111.153c-0.102,1.32-0.539,2.334-0.93,3.598
	c-0.008,0.176,0.178,2.537-0.455,2.658c-1.291-1.543-0.754-4.954,0.205-6.451c0-1.803,0.455-2.677,2.055-3.987
	C426.125,106.97,423.986,110.716,423.791,111.153z M421.477,110.465c-0.094-0.948,0.297-0.475,0.26-0.037
	C421.652,110.437,421.57,110.447,421.477,110.465z M397.365,88.714c-0.01-0.167-0.02-0.335-0.037-0.502
	C397.783,87.143,398.602,88.305,397.365,88.714z M391.314,97.35c-0.074,0.064-0.074,0.064-0.27,0.102
	C390.421,95.565,391.63,96.346,391.314,97.35z M391.937,105.456c-1.014-3.124-1.498-3.709-0.605-6.852
	c0.986,0-0.354,2.836,2.688,2.65c0.094-0.521,0.094-0.521,0.223-0.791c1.523-1.143,0.66-3.531,1.227-5.252
	c0-0.418-1.098-3.625,0.057-3.485c0.549,0.548,0.455-1.487,0.455-1.794c1.692-0.93,1.069,1.961,2.565-0.158
	c0.986-0.809,1.08-1.152,2.408-1.152c0.836-0.344,2.314-1.85,3.16-1.004c0.334,0,0.502-0.232,0.893-0.232
	c0.93,1.014,1.783-1.329,3.207-0.13c0.408,0,0.482-0.539,0.947-0.483c0.289,0.288,0.289,0.288,0.727,0.549
	c3.559,0.576,6.924,1.003,9.807,3.29c0.371,0.595,0.455,0.967,1.104,1.106c4.018,3.327,3.738,6.701,3.738,11.367
	c0.809,2.176,1.328,0.781-0.529,2.956c-0.623,1.636-1.842,0.549-1.135-0.929c0.92-0.847-0.408-2.585,0.428-3.766
	c0-0.548-0.25-1.031-0.25-1.543c0.816-1.784-1.246-2.965-0.744-3.969c0-0.669-1.711-4.396-2.24-2.631
	c0.428,1.041,0.762,2.417,1.375,3.375c0,0.846,0.492,5.232-0.361,5.232c-0.225-0.706-0.299-3.253-0.912-3.457
	c-0.01,1.041,0.26,2.891-0.223,3.895c-1.635,0.762-1.451,1.181-1.98,2.946c0.205,1.329,1.246,1.041,1.246,2.547
	c-0.438,1.618,1.264,3.913-0.717,2.751c-0.9-0.26-3.086-0.465-3.596-1.365c-1.934-0.763-3.625,0.12-5.047,1.348
	c-0.363,0.892-0.316,2.667-1.33,2.779c-1.449-1.19-1.607-3.719,0.354-4.48c0.047-0.493-2.547,0.037-3.486-0.27
	c-0.512,0.307,1.738,4.842-0.939,2.946c-0.818-1.775-2.844-4.165-5.027-3.439c-1.266,0,0.67,0.93-0.818,0.93
	c-1.711-0.437-2.426-0.567-4.016,0.251c-1.199,0,1.701-1.264,1.813-1.33c0-0.733-3.736-0.129-2.285-1.867
	c-0.066-1.516,0.176-1.887-1.387-1.887C392.056,104.46,392.921,106.069,391.937,105.456z M410.535,113.784
	c0.781-0.223,0.178,2.537,0.893,3.393c0.93,0.539,1.525,0.307,1.646,1.46c0.549,0.79,3.402-0.726,2.342,1.087
	c-0.67,0.298-1.57,0.316-2.305,0.409c-0.604-0.251-0.762-0.428-1.125-0.958c-0.91-0.585-2.203-0.371-2.129-1.729
	c0.457-0.455,1.041,0.754,1.041,0.027C410.063,116.266,409.645,115.168,410.535,113.784z M406.418,118.338
	c-1.654-0.967-1.021-2.287-0.846-4.164C406.455,111.023,407.58,118.106,406.418,118.338z M392.81,117.846
	c-0.25-0.67-0.707-2.082,0.428-1.516c0.502,0.697,1.004,1.57,1.273,1.906c1.189,0.863,5.792,1.021,5.792,2.352
	c-0.678,0.324-1.395,0.585-2.129,0.725C396.388,120.597,392.597,120.272,392.81,117.846z M398.611,134.14
	c-1.311-0.585,1.041-1.784,1.133-0.167C399.373,134.028,398.992,134.084,398.611,134.14z M400.469,134.819
	c-0.631-0.502-0.316-0.66,0.232-1.022C401.324,133.825,400.934,134.688,400.469,134.819z M402.264,135.004
	c-0.883-0.632-0.139-0.985,0.521-0.437C402.785,134.967,402.598,134.93,402.264,135.004z M404.559,134.596
	c-0.119,0.064-0.119,0.064-0.557,0.102C403.063,133.406,405.666,133.071,404.559,134.596z M406.232,135.377
	c-1.691-1.219,1.135-2.241,1.135-0.55C407.125,135.377,406.771,135.339,406.232,135.377z M411.559,134.633
	c-1.004-0.446-0.027-1.273,0.734-1.273C414.105,132.021,412.283,134.243,411.559,134.633z M412.943,130.859
	c-0.324,1.134-2.547,1.794-3.588,1.626c-0.873,0.391-0.883,1.748,0.148,1.609c1.238-1.469,1.313,1.133,0.316,0.669
	c-0.166-0.698-0.9,0.241-1.422,0.372c-1.664-0.902,1.422-1.627-0.967-2.343c-1.682,0.753-1.041-0.075-2.221-0.548
	c-1.822,1.422-2.799,0.315-3.105-1.572c-1.021-1.858,1.451-1.774,2.5-2.332c1.004,0,2.416,2.369,2.465,0.009
	c0.668-0.521,0.807,0.325,1.18,0.065c0.994-1.376,1.924,1.357,1.85-0.037c-0.623-1.775-0.111-1.767,0.799-3.234
	c0-2.231-2.891,3.401-3.029,1.924c0.047-0.065,0.092-0.14,0.148-0.215c2.203-1.318-2.584-6.72,0.482-7.482
	c0.094-1.301-1.85-4.183-0.668-5.094c2.018,0,0.418,2.882,1.301,4.201c0.754,0.66,3.105,2.307,4.09,2.307
	c2.352-0.586,5.299-0.232,5.734-3.198c0.242-0.669,0.475-3.253,1.553-2.668c0.344,0.911,0.188,4.583,1.701,4.007
	c3.318-2.482-1.496,7.919-4.434,6.357c0-0.874,2.184-1.961,0.232-1.961c-1.496,1.218,0.205,1.785-1.432,2.603
	C413.604,126.555,413.084,127.913,412.943,130.859z M440.375,123.543c-1.629-0.771-2.742-1.59-4.658-1.459
	c-1.078-0.67,0.521-1.432,0.912-1.915C438.143,119.5,442.586,122.809,440.375,123.543z M446.092,128.582
	c-0.15,0.028-0.299,0.065-0.447,0.103c-0.576-0.771-0.791-0.549-0.725-1.674c-0.707-1.013-4.787-7.873-0.576-5.986
	C446.287,122.809,448.061,126.165,446.092,128.582z"/>
<path fill="#FFFFFF" d="M486.362,131.288c-1.27,0.437-2.744-0.833-2.744-0.833c-1.5,1.917-0.316,3.134-0.316,3.134
	c1.752,0.251,4.111,2.916,4.111,2.916c4.344,0.688,4.734,2.949,4.734,2.949c0.338,2.718-2.426,3.544-2.426,3.544
	s0.502,1.58-0.172,6.93c0,0,0.33,1.917,1.666,1.917c0,0,7.77-5.925,13.945-8.847l1.971-0.899c2.307-1.303,4.516,3.313,4.516,3.313
	c5.719,8.629,10.938,12.325,10.938,12.325c3.41,0.906,5.322,2.308,5.322,2.308c0.906,0.701,1.857,0.681,1.857,0.681
	c1.031-0.39,1.072-0.357,1.072-0.357c0.602,0.403-0.529,1.514-0.529,1.514c-0.801,0.906-1.799,0.563-1.799,0.563
	c-3.412-1.005-4.271-0.371-4.271-0.371c-3.736,1.184-3.154-0.933-3.154-0.933c0.199-1.203-0.906-1.805-0.906-1.805
	c-11.234-3.511-12.172-10.004-12.172-10.004c-0.662-2.07-1.369-0.82-1.369-0.82c-3.512,6.222-10.633,10.335-10.633,10.335
	c-4.906,5.621-9.43,3.022-9.43,3.022c-5.719-2.42-3.795-9.952-3.795-9.952c-0.1-7.327-3.393-10.884-3.393-10.884
	s-1.023,2.519-3.365,8.616c0,0-1.5,5.343-4.762,10.606c0,0,0.332,1.667,3.082,2.208c0,0-0.416,0.879-1.422,0.377
	c0,0-1.25-0.668-2.664-0.668c0,0-4.516,1.838-5.773,1.838c0,0-1.916-0.085,0-1.004c0,0,2.766-1.752,4.438-2.923
	c0,0,1.117-0.014,2.949-9.449c0,0,0.807-3.412,2.057-5.416c0,0,3.174-11.023,2.672-9.853c-3.439,8.027-12.609,3.63-12.609,3.63
	c9.184,0.502,10.434-8.894,10.434-8.894c-1.838,3.088-5.012,2.837-5.012,2.837c3.504-1.918,4.912-9.112,4.912-9.112
	c1.25-5.759,6.109-6.811,6.109-6.811s2.916-0.86,4.582,1.144c0,0,4.67,0.503,5.172,3.842c0,0,0.25,1.687-1.607,2.202l-0.039,0.912
	c0,0-0.715,0.595-0.477,0.985l0.674,1.342c0,0,0.635,0.595-0.436,0.833c0,0-0.43,0.199-0.178,0.595c0,0-0.193,0.45-0.928,0.218
	c0,0,0.576,0.251,0.457,0.734c0,0-0.111,0.258-0.396,0.225c0,0-0.377-0.113-0.43,0.258
	C486.845,130.329,487.183,131.004,486.362,131.288z"/>
<path fill="#FFFFFF" d="M317.146,130.31c-0.053-0.371-0.43-0.258-0.43-0.258c-0.284,0.033-0.396-0.225-0.396-0.225
	c-0.119-0.482,0.457-0.734,0.457-0.734c-0.734,0.231-0.927-0.218-0.927-0.218c0.252-0.396-0.178-0.595-0.178-0.595
	c-1.071-0.238-0.437-0.833-0.437-0.833l0.674-1.342c0.238-0.39-0.476-0.985-0.476-0.985l-0.04-0.912
	c-1.857-0.516-1.606-2.202-1.606-2.202c0.502-3.339,5.171-3.842,5.171-3.842c1.666-2.003,4.582-1.144,4.582-1.144
	s4.86,1.051,6.109,6.811c0,0,1.409,7.194,4.913,9.112c0,0-3.174,0.251-5.012-2.837c0,0,1.249,9.396,10.434,8.894
	c0,0-9.171,4.397-12.609-3.63c-0.502-1.17,2.672,9.853,2.672,9.853c1.249,2.003,2.056,5.416,2.056,5.416
	c1.832,9.435,2.949,9.449,2.949,9.449c1.673,1.17,4.438,2.923,4.438,2.923c1.917,0.919,0,1.004,0,1.004
	c-1.257,0-5.773-1.838-5.773-1.838c-1.414,0-2.664,0.668-2.664,0.668c-1.005,0.502-1.422-0.377-1.422-0.377
	c2.751-0.542,3.082-2.208,3.082-2.208c-3.261-5.263-4.762-10.606-4.762-10.606c-2.341-6.097-3.365-8.616-3.365-8.616
	s-3.293,3.557-3.393,10.884c0,0,1.925,7.531-3.795,9.952c0,0-4.522,2.598-9.429-3.022c0,0-7.121-4.113-10.633-10.335
	c0,0-0.707-1.25-1.369,0.82c0,0-0.938,6.493-12.173,10.004c0,0-1.104,0.602-0.906,1.805c0,0,0.582,2.116-3.153,0.933
	c0,0-0.859-0.635-4.271,0.371c0,0-0.998,0.343-1.799-0.563c0,0-1.131-1.111-0.529-1.514c0,0,0.04-0.033,1.071,0.357
	c0,0,0.952,0.02,1.858-0.681c0,0,1.911-1.402,5.322-2.308c0,0,5.218-3.696,10.938-12.325c0,0,2.209-4.616,4.516-3.313l1.971,0.899
	c6.176,2.922,13.945,8.847,13.945,8.847c1.336,0,1.666-1.917,1.666-1.917c-0.674-5.35-0.172-6.93-0.172-6.93
	s-2.764-0.827-2.427-3.544c0,0,0.391-2.261,4.734-2.949c0,0,2.36-2.665,4.112-2.916c0,0,1.184-1.216-0.316-3.134
	c0,0-1.475,1.27-2.745,0.833C316.79,131.004,317.126,130.329,317.146,130.31z"/>
<line fill="none" stroke="#FFFFFF" stroke-width="1.4173" stroke-miterlimit="10" x1="251.478" y1="173.829" x2="550.577" y2="173.829"/>
<line fill="none" stroke="#FFFFFF" stroke-width="1.4173" stroke-miterlimit="10" x1="263.9" y1="310.422" x2="540.058" y2="310.422"/>
<g>
	<path fill="#FFFFFF" d="M384.695,350.145v1.323c0,0.86-0.037,1.618-0.113,2.274s-0.242,1.222-0.502,1.694
		c-0.344,0.646-0.76,1.124-1.246,1.436c-0.484,0.312-1.008,0.468-1.568,0.468c-0.67,0-1.295-0.183-1.877-0.548
		c-0.584-0.366-1.08-0.86-1.488-1.484c-0.584-0.903-0.994-1.452-1.23-1.646c-0.303-0.259-0.766-0.388-1.393-0.388
		c-0.344,0-0.668,0.248-0.971,0.742c-0.389,0.646-0.582,1.549-0.582,2.711h-0.549c0-2.775,0.615-4.861,1.848-6.261
		c0.668-0.774,1.791-1.494,3.367-2.161c1.102-0.475,1.922-1.251,2.463-2.33c0.539-1.078,0.809-2.318,0.809-3.721
		c0-1.229-0.227-2.459-0.68-3.688c-0.369-0.992-0.789-1.639-1.266-1.941c-0.346-0.216-0.854-0.323-1.523-0.323
		c-1.297,0-2.379,0.692-3.242,2.077c-0.754,1.212-1.129,2.467-1.129,3.763c0,0.259,0.01,0.441,0.031,0.549
		c0.105-0.301,0.25-0.526,0.43-0.678c0.182-0.15,0.398-0.226,0.654-0.226c0.318,0,0.604,0.124,0.859,0.371
		c0.254,0.248,0.436,0.618,0.541,1.113c0.043,0.15,0.064,0.354,0.064,0.613c0,0.581-0.16,1.076-0.479,1.484
		c-0.32,0.408-0.715,0.613-1.184,0.613c-0.234,0-0.438-0.043-0.607-0.13c-0.383-0.193-0.676-0.548-0.879-1.064
		s-0.303-1.14-0.303-1.872c0-1.678,0.461-3.194,1.387-4.549c1.098-1.592,2.549-2.389,4.355-2.389c2.324,0,4.055,0.904,5.195,2.711
		c0.84,1.334,1.26,2.883,1.26,4.646c0,1.42-0.303,2.507-0.904,3.259c-0.668,0.839-1.785,1.432-3.355,1.775
		c-2.41,0.538-4.033,1.14-4.873,1.807c-0.838,0.667-1.432,1.592-1.775,2.775c0.174-0.15,0.432-0.227,0.777-0.227
		c0.15,0,1.307,0.276,3.465,0.829c1.035,0.265,1.932,0.397,2.686,0.397c0.152,0,0.318-0.005,0.502-0.017
		c0.184-0.011,0.438-0.049,0.762-0.113c0.734-0.152,1.24-0.499,1.521-1.042c0.193-0.391,0.291-0.954,0.291-1.692
		c-0.021-0.455-0.033-0.791-0.033-1.008L384.695,350.145z"/>
	<path fill="#FFFFFF" d="M393.601,357.34c-1.785,0-3.346-0.957-4.68-2.871c-1.441-2.065-2.16-4.668-2.16-7.81
		c0-3.141,0.709-5.732,2.129-7.776c1.334-1.936,2.904-2.904,4.711-2.904s3.377,0.958,4.711,2.872
		c1.441,2.065,2.162,4.668,2.162,7.809c0,3.142-0.693,5.707-2.082,7.696C397.006,356.346,395.408,357.34,393.601,357.34z
		 M393.601,357.05c0.859,0,1.506-0.87,1.936-2.609s0.646-4.339,0.646-7.797c0-3.329-0.033-5.402-0.098-6.218
		c-0.215-2.771-1.043-4.156-2.484-4.156c-0.84,0-1.475,0.864-1.904,2.594c-0.43,1.729-0.645,4.322-0.645,7.78
		c0,3.351,0.031,5.435,0.096,6.25C391.363,355.665,392.181,357.05,393.601,357.05z"/>
	<path fill="#FFFFFF" d="M402.604,337.818c2.594,0,4.359-0.124,5.303-0.371s1.811-0.736,2.604-1.469h0.451v18.971
		c0,0.625,0.043,1.023,0.129,1.196c0.043,0.087,0.189,0.178,0.436,0.274c0.248,0.097,0.689,0.178,1.324,0.242
		c0.635,0.065,1.338,0.098,2.113,0.098v0.29h-12.359v-0.29c0.926,0,1.727-0.032,2.404-0.098c0.678-0.064,1.141-0.146,1.389-0.242
		c0.246-0.097,0.408-0.216,0.482-0.356c0.076-0.14,0.113-0.513,0.113-1.117v-15.024c0-0.583-0.059-0.955-0.178-1.117
		c-0.117-0.162-0.307-0.291-0.564-0.389c-0.258-0.097-0.645-0.162-1.162-0.194c-0.516-0.032-1.344-0.049-2.484-0.049V337.818z"/>
	<path fill="#FFFFFF" d="M426.482,345.24c0.969,0.236,1.764,0.866,2.387,1.888c0.625,1.021,0.938,2.242,0.938,3.662
		c0,1.678-0.582,3.151-1.744,4.421c-1.313,1.419-3.043,2.129-5.193,2.129c-1.916,0-3.529-0.634-4.842-1.903
		s-1.967-2.754-1.967-4.453c0-0.946,0.396-1.871,1.193-2.775c0.043-0.042,0.645-0.602,1.807-1.678
		c-0.732-0.43-1.291-1.017-1.678-1.759s-0.58-1.597-0.58-2.564c0-1.656,0.547-3.076,1.645-4.26c1.227-1.312,2.807-1.969,4.744-1.969
		c1.828,0,3.322,0.689,4.484,2.065c0.947,1.119,1.42,2.227,1.42,3.323C429.096,342.831,428.225,344.121,426.482,345.24z
		 M419.512,346.757c-0.504,0.43-0.855,1.092-1.055,1.984s-0.301,1.845-0.301,2.855c0,1.786,0.418,3.141,1.25,4.065
		c0.834,0.926,1.955,1.388,3.365,1.388c1.453,0,2.607-0.408,3.461-1.227c0.855-0.817,1.283-1.882,1.283-3.194
		c0-2.215-0.965-3.688-2.893-4.421C422.908,347.735,421.205,347.252,419.512,346.757z M426.127,345.078
		c0.375-0.473,0.689-1.037,0.943-1.693c0.252-0.656,0.381-1.35,0.381-2.082c0-1.721-0.453-3.021-1.355-3.904
		c-0.775-0.753-1.787-1.129-3.033-1.129c-1.184,0-2.195,0.339-3.033,1.017c-0.84,0.678-1.26,1.641-1.26,2.888
		c0,1.786,1.029,3.033,3.084,3.743C422.283,344.067,423.707,344.455,426.127,345.078z"/>
</g>
<g>
	<path fill="#FFFFFF" d="M283.822,319.733c0.563-4.168,1.11-8.297,1.641-12.39c0.53-4.094,1.11-8.296,1.745-12.607
		c-2.878,1.116-5.242,2.01-7.085,2.689c-1.85,0.678-2.957,1.062-3.33,1.147c-1.115,0.262-1.979,0.246-2.591-0.041
		c-0.613-0.288-0.932-0.678-0.954-1.169c-0.021-0.488,0.219-1.008,0.72-1.558c0.499-0.551,1.31-0.954,2.423-1.214
		c0.371-0.086,1.568-0.58,3.594-1.477c2.022-0.897,4.691-2.122,7.999-3.675c0.915-6.356,2.041-13.093,3.374-20.204
		c1.332-7.113,2.997-14.836,4.988-23.173c1.992-8.334,4.419-17.427,7.281-27.275c2.862-9.847,6.315-20.722,10.363-32.623
		c0.865-2.424,2.102-3.726,3.709-3.903c1.606-0.177,3.117,0.406,4.527,1.743c1.413,1.342,2.47,3.207,3.179,5.595
		c0.706,2.391,0.556,4.871-0.455,7.442c-2.9,7.359-5.507,14.106-7.821,20.245c-2.316,6.142-4.408,11.83-6.272,17.072
		c-1.868,5.242-3.565,10.125-5.089,14.651c-1.524,4.524-2.908,8.849-4.149,12.976c-1.24,4.126-2.392,8.159-3.456,12.103
		c-1.062,3.942-2.063,7.935-3.011,11.978c3.825-1.785,8.016-3.763,12.573-5.932c4.557-2.169,9.262-4.417,14.113-6.739
		c4.852-2.321,9.774-4.683,14.771-7.082c4.998-2.398,9.887-4.722,14.666-6.972c2.261-8.172,4.525-16.273,6.794-24.307
		c2.267-8.03,4.421-15.725,6.455-23.079c2.036-7.354,3.943-14.211,5.724-20.573c1.779-6.36,3.349-11.941,4.713-16.739
		c1.361-4.798,2.443-8.689,3.249-11.672c0.805-2.984,1.271-4.723,1.398-5.221c0.505-2.128,1.427-3.379,2.76-3.755
		c1.336-0.375,2.622-0.134,3.861,0.722c1.238,0.857,2.201,2.217,2.886,4.081c0.684,1.864,0.702,3.969,0.058,6.314
		c-0.2,0.571-0.692,2.155-1.477,4.75c-0.785,2.598-1.835,5.977-3.148,10.141c-1.317,4.165-2.862,9.024-4.642,14.577
		c-1.777,5.554-3.688,11.571-5.723,18.047c-2.039,6.478-4.191,13.294-6.462,20.448c-2.27,7.154-4.554,14.398-6.852,21.729
		c3.751-1.711,7.243-3.323,10.481-4.838c3.234-1.514,6.103-2.852,8.603-4.019c2.5-1.163,4.563-2.078,6.183-2.748
		c1.621-0.669,2.691-1.085,3.21-1.251c2.673-0.68,4.644-0.661,5.914,0.053c1.271,0.715,1.826,1.778,1.664,3.187
		c-0.16,1.414-1.049,2.979-2.662,4.701c-1.611,1.721-4.001,3.284-7.166,4.688c-0.516,0.234-1.64,0.706-3.371,1.415
		c-1.733,0.709-3.925,1.614-6.579,2.717c-2.651,1.101-5.693,2.344-9.123,3.723c-3.429,1.384-7.099,2.863-11.006,4.441
		c-2.437,7.62-4.821,15.146-7.153,22.585c-2.332,7.439-4.566,14.536-6.702,21.3c-2.14,6.764-4.131,13.027-5.973,18.796
		c-1.845,5.767-3.439,10.822-4.782,15.162c-1.347,4.341-2.43,7.811-3.251,10.408c-0.822,2.599-1.264,4.073-1.321,4.429
		c-0.325,1.138-0.778,1.893-1.363,2.271c-0.584,0.378-1.144,0.472-1.677,0.287c-0.535-0.188-0.93-0.644-1.187-1.369
		c-0.257-0.725-0.226-1.658,0.1-2.794c0.063-0.284,0.416-1.598,1.063-3.944c0.646-2.344,1.536-5.524,2.669-9.539
		c1.133-4.016,2.463-8.742,3.983-14.181c1.521-5.436,3.169-11.352,4.948-17.746c1.777-6.398,3.671-13.168,5.681-20.311
		c2.004-7.143,4.044-14.408,6.117-21.801c-4.646,1.892-9.402,3.824-14.268,5.796c-4.868,1.976-9.663,3.892-14.383,5.751
		c-4.723,1.861-9.276,3.661-13.666,5.4c-4.389,1.743-8.393,3.324-12.004,4.748c-1.004,4.467-1.978,9.107-2.925,13.922
		c-0.948,4.813-1.969,10.124-3.058,15.929c-0.31,1.556-0.728,2.646-1.263,3.265c-0.536,0.621-1.054,0.802-1.554,0.546
		c-0.501-0.26-0.903-0.909-1.213-1.946C283.527,322.799,283.522,321.432,283.822,319.733z"/>
	<path fill="#FFFFFF" d="M414.863,271.128c-0.098,1.199-0.346,2.734-0.75,4.61c-0.408,1.879-0.85,3.724-1.33,5.535
		c-0.48,1.813-0.916,3.461-1.297,4.954c-0.385,1.49-0.566,2.445-0.547,2.866c0.523-0.024,1.348-0.885,2.473-2.586
		c1.125-1.697,2.453-3.881,3.986-6.546c1.531-2.666,3.236-5.672,5.113-9.02s3.826-6.715,5.855-10.104
		c1.047-1.73,2.027-2.896,2.939-3.501c0.91-0.602,1.617-0.755,2.119-0.462c0.5,0.292,0.721,1.004,0.658,2.128
		c-0.061,1.126-0.617,2.589-1.662,4.391c-2.018,3.6-3.982,7.073-5.895,10.421c-1.918,3.35-3.711,6.413-5.389,9.19
		c-1.68,2.778-3.205,5.144-4.582,7.1c-1.375,1.956-2.533,3.376-3.469,4.261c-1.732,1.552-3.342,2.062-4.83,1.532
		c-1.486-0.528-2.396-1.979-2.729-4.353c-0.186-0.833-0.293-1.896-0.311-3.194c-0.021-1.298,0.012-2.615,0.104-3.953
		c-1.018,2.432-2.225,4.82-3.621,7.163s-2.918,4.411-4.564,6.203c-1.647,1.794-3.347,3.167-5.108,4.124
		c-1.758,0.956-3.548,1.229-5.369,0.819c-1.667-0.416-2.762-1.771-3.278-4.063c-0.513-2.292-0.547-5.115-0.099-8.47
		c0.453-3.354,1.339-7.043,2.659-11.067c1.321-4.023,2.983-7.978,4.986-11.854c2.005-3.881,4.341-7.44,7.009-10.684
		c2.672-3.243,5.539-5.81,8.609-7.701c1.973-1.211,3.777-1.941,5.418-2.19s3.07-0.206,4.285,0.124
		c1.215,0.331,2.182,0.869,2.889,1.608c0.711,0.741,1.174,1.51,1.398,2.304c0.221,0.798,0.143,1.539-0.238,2.222
		c-0.383,0.687-1.059,1.154-2.021,1.406c-3.713,0.941-7.125,2.672-10.24,5.196c-3.115,2.526-5.895,5.424-8.338,8.69
		c-2.443,3.268-4.542,6.677-6.297,10.229c-1.756,3.553-3.147,6.844-4.177,9.872c-1.026,3.031-1.646,5.548-1.855,7.558
		c-0.209,2.011-0.011,3.106,0.596,3.289c0.761,0.177,1.698-0.216,2.821-1.18c1.121-0.961,2.3-2.295,3.534-4
		c1.237-1.703,2.483-3.672,3.734-5.904c1.252-2.229,2.369-4.49,3.357-6.782c0.984-2.29,1.803-4.536,2.457-6.742
		c0.652-2.202,1.014-4.114,1.094-5.731c0.018-1.266,0.578-2.185,1.678-2.762c1.102-0.575,2.275-0.766,3.523-0.576
		c1.246,0.188,2.379,0.751,3.396,1.688C414.578,268.124,415.012,269.436,414.863,271.128z"/>
	<path fill="#FFFFFF" d="M480.183,261.255c-1.863,3.661-3.928,7.003-6.195,10.014c-2.268,3.015-4.93,5.609-7.984,7.779
		c-2.111,1.5-4.025,2.323-5.746,2.468c-1.721,0.15-3.145-0.208-4.271-1.072c-1.127-0.859-1.861-2.195-2.205-4.006
		c-0.346-1.809-0.119-3.924,0.674-6.347c-1.469,0.77-3.246,2.182-5.329,4.238c-2.086,2.06-4.195,4.365-6.334,6.915
		c-2.139,2.554-4.145,5.135-6.018,7.745c-1.871,2.609-3.369,4.819-4.486,6.623c-1.119,1.874-2.133,3.165-3.039,3.872
		c-0.904,0.707-1.643,0.985-2.213,0.836c-0.57-0.151-0.914-0.696-1.031-1.639c-0.115-0.941,0.016-2.158,0.4-3.649
		c2.127-7.814,3.99-14.391,5.592-19.725c1.598-5.335,2.924-9.71,3.973-13.125c1.176-3.912,2.234-7.084,3.178-9.512
		c-0.561,0.938-1.225,1.985-2,3.142c-0.629,1.014-1.348,2.149-2.154,3.412c-0.807,1.265-1.664,2.655-2.572,4.169
		c-0.77,1.297-1.557,2.14-2.365,2.527c-0.807,0.388-1.463,0.417-1.967,0.088c-0.502-0.329-0.773-0.947-0.814-1.859
		c-0.041-0.91,0.324-2.013,1.09-3.311c0.768-1.3,1.57-2.65,2.408-4.056c0.838-1.406,1.744-2.955,2.719-4.647
		c0.977-1.693,2.113-3.552,3.412-5.576c1.299-2.021,2.828-4.301,4.594-6.837c1.764-2.464,3.6-4.195,5.51-5.195
		c1.906-0.996,3.558-1.404,4.956-1.222c1.396,0.187,2.402,0.86,3.018,2.024c0.615,1.167,0.475,2.646-0.42,4.439
		c-1.24,2.512-2.543,5.289-3.906,8.334c-1.366,3.043-2.728,6.14-4.089,9.287c-1.361,3.15-2.668,6.227-3.924,9.229
		c-1.252,3.004-2.371,5.704-3.352,8.099c-0.982,2.396-1.775,4.361-2.383,5.896s-0.943,2.411-1.008,2.623
		c0.064-0.212,0.676-1.256,1.83-3.134c1.154-1.875,2.686-4.155,4.594-6.839c1.904-2.68,4.121-5.569,6.648-8.666
		c2.526-3.097,5.194-5.97,8.005-8.621c2.879-2.726,5.502-4.476,7.873-5.248c2.365-0.771,4.252-0.979,5.656-0.622
		c1.406,0.358,2.227,1.111,2.467,2.258c0.238,1.147-0.328,2.314-1.701,3.498c-1.373,1.185-2.787,2.704-4.244,4.559
		c-1.455,1.854-2.721,3.788-3.793,5.802c-1.078,2.016-1.852,3.944-2.33,5.788c-0.48,1.849-0.438,3.319,0.139,4.415
		c1.195-0.122,2.48-0.795,3.854-2.014c1.369-1.22,2.73-2.702,4.08-4.446c1.346-1.744,2.633-3.628,3.855-5.648
		c1.223-2.018,2.322-3.892,3.295-5.62c0.977-1.728,1.916-2.91,2.826-3.548c0.91-0.636,1.615-0.809,2.117-0.517
		c0.502,0.295,0.721,1.022,0.66,2.182C481.671,257.979,481.153,259.457,480.183,261.255z"/>
	<path fill="#FFFFFF" d="M499.425,298.606c0.678-1.575,1.885-3.979,3.617-7.214c1.73-3.237,3.693-6.833,5.879-10.792
		c2.188-3.957,4.5-8.044,6.939-12.258c2.439-4.216,4.779-8.127,7.021-11.736c1.051-1.66,2.049-2.793,3.002-3.398
		c0.947-0.603,1.689-0.76,2.229-0.467c0.539,0.291,0.758,1.001,0.658,2.127c-0.1,1.129-0.713,2.558-1.834,4.293
		c-1.4,2.309-3.16,5.336-5.279,9.079c-2.125,3.746-4.348,7.722-6.674,11.932c-2.326,4.209-4.654,8.419-6.982,12.627
		c-2.326,4.212-4.432,7.866-6.318,10.97c-1.193,1.877-2.354,2.807-3.48,2.787c-1.125-0.02-1.918-0.931-2.373-2.736
		c-0.281-1.25-0.469-3.296-0.557-6.134c-0.09-2.837-0.02-6.279,0.213-10.325c0.23-4.045,0.588-8.622,1.074-13.732
		c0.484-5.11,1.119-10.594,1.91-16.454c-1.68,4.427-3.611,9.057-5.797,13.89c-2.188,4.835-4.523,9.204-7.016,13.104
		s-5.035,6.947-7.643,9.133c-2.604,2.188-5.201,2.849-7.793,1.981c-1.83-0.62-3.002-2.093-3.52-4.422
		c-0.518-2.328-0.545-5.063-0.086-8.208c0.461-3.143,1.324-6.479,2.592-10.01c1.268-3.531,2.752-6.861,4.451-9.989
		c1.701-3.13,3.566-5.845,5.604-8.146c2.035-2.304,4.057-3.745,6.055-4.326c2.52-0.745,4.594-0.59,6.215,0.458
		c1.623,1.051,2.807,2.298,3.547,3.737c1.355-3.219,2.635-6.521,3.836-9.909c1.197-3.386,2.355-6.859,3.473-10.42
		c1.523-7.927,3.412-16.012,5.672-24.254c0.834-3.125,2.117-5.498,3.848-7.12c1.73-1.619,3.359-2.501,4.893-2.643
		c1.533-0.137,2.666,0.447,3.4,1.744c0.734,1.301,0.561,3.312-0.518,6.023c-0.543,1.36-1.268,3.531-2.188,6.521
		c-0.918,2.987-1.924,6.473-3.02,10.451c-1.102,3.98-2.258,8.349-3.469,13.102c-1.217,4.758-2.385,9.601-3.518,14.528
		c-1.131,4.929-2.225,9.802-3.285,14.622c-1.063,4.82-1.969,9.299-2.723,13.438s-1.32,7.795-1.703,10.972
		C499.394,294.607,499.276,296.998,499.425,298.606z M471.606,291.009c0.854,0.594,2.055,0.189,3.605-1.215
		c1.553-1.401,3.313-3.551,5.287-6.446c1.971-2.894,4.047-6.444,6.223-10.647s4.352-8.845,6.525-13.925
		c-1.398-1.13-3.02-1.197-4.85-0.203c-1.834,0.994-3.674,2.602-5.525,4.824c-1.855,2.226-3.654,4.797-5.4,7.716
		c-1.744,2.922-3.193,5.76-4.348,8.512c-1.152,2.755-1.908,5.191-2.264,7.312C470.505,289.058,470.753,290.415,471.606,291.009z"/>
</g>
</svg>
