<?xml version="1.0" encoding="utf-8"?>
<!-- Generator: Adobe Illustrator 15.1.0, SVG Export Plug-In . SVG Version: 6.00 Build 0)  -->
<!DOCTYPE svg PUBLIC "-//W3C//DTD SVG 1.1//EN" "http://www.w3.org/Graphics/SVG/1.1/DTD/svg11.dtd">
<svg version="1.1" id="Layer_1" xmlns="http://www.w3.org/2000/svg" xmlns:xlink="http://www.w3.org/1999/xlink" x="0px" y="0px"
	 width="792px" height="612px" viewBox="0 0 792 612" enable-background="new 0 0 792 612" xml:space="preserve">
<polygon points="396,31.518 406.432,20.035 415.586,32.562 427.179,22.253 434.949,35.682 447.573,26.664 453.871,40.842 
	467.383,33.216 472.137,47.985 486.383,41.838 489.541,57.029 504.359,52.431 505.886,67.871 521.108,64.875 520.985,80.389 
	536.44,79.027 534.668,94.441 550.181,94.73 546.779,109.868 562.172,111.805 557.184,126.495 572.283,130.057 565.76,144.134 
	580.396,149.28 572.414,162.584 586.42,169.257 577.068,181.637 590.285,189.761 579.671,201.076 591.951,210.56 580.194,220.683 
	591.396,231.418 578.628,240.233 588.625,252.099 574.995,259.507 583.674,272.368 569.332,278.285 576.596,291.996 
	561.707,296.357 567.471,310.76 552.202,313.512 556.403,328.448 540.929,329.563 543.519,344.86 528.014,344.323 528.964,359.809 
	513.602,357.625 512.899,373.126 497.858,369.326 495.512,384.661 480.959,379.281 476.998,394.281 463.099,387.386 457.565,401.88 
	444.478,393.545 437.435,407.37 425.309,397.69 416.834,410.69 405.807,399.777 396,411.8 386.192,399.777 375.163,410.69 
	366.689,397.69 354.563,407.37 347.52,393.545 334.434,401.88 328.898,387.386 315.001,394.281 311.039,379.281 296.486,384.661 
	294.141,369.326 279.1,373.126 278.396,357.625 263.036,359.809 263.986,344.323 248.48,344.86 251.069,329.563 235.596,328.448 
	239.796,313.512 224.527,310.76 230.293,296.357 215.402,291.996 222.666,278.285 208.324,272.368 217.004,259.507 203.373,252.099 
	213.369,240.233 200.604,231.418 211.805,220.683 200.048,210.56 212.327,201.076 201.713,189.761 214.93,181.637 205.578,169.257 
	219.586,162.584 211.603,149.28 226.238,144.134 219.715,130.057 234.815,126.495 229.826,111.805 245.22,109.868 241.819,94.729 
	257.331,94.441 255.559,79.027 271.014,80.389 270.891,64.875 286.113,67.871 287.639,52.431 302.457,57.029 305.615,41.838 
	319.861,47.985 324.616,33.216 338.128,40.842 344.426,26.664 357.051,35.682 364.819,22.253 376.414,32.562 385.566,20.035 "/>
<circle fill="none" stroke="#FFFFFF" stroke-width="0.9921" stroke-miterlimit="10" cx="395.65" cy="215.917" r="168.732"/>
<circle fill="none" stroke="#FFFFFF" stroke-width="4.252" stroke-miterlimit="10" cx="395.65" cy="215.918" r="159.605"/>
<defs>
	
	
		<inkscape:perspective  id="perspective2410" sodipodi:type="inkscape:persp3d" inkscape:vp_z="744.09448 : 526.18109 : 1" inkscape:vp_y="0 : 1000 : 0" inkscape:vp_x="0 : 526.18109 : 1" inkscape:persp3d-origin="372.04724 : 350.78739 : 1">
		</inkscape:perspective>
</defs>
<sodipodi:namedview  id="base" inkscape:cy="495" inkscape:cx="382.5" inkscape:zoom="0.47070707" showgrid="false" pagecolor="#ffffff" bordercolor="#666666" borderopacity="1.0" objecttolerance="10.0" gridtolerance="10.0" guidetolerance="10.0" inkscape:pageopacity="0.0" inkscape:pageshadow="2" inkscape:window-width="1920" inkscape:window-height="1028" inkscape:current-layer="g2412" inkscape:window-y="26" inkscape:window-x="0">
	</sodipodi:namedview>
<g id="g2412" transform="matrix(1.25,0,0,-1.25,0,990)" inkscape:label="Crossbones_(PSF)" inkscape:groupmode="layer">
	<path id="path2414" fill="#FFFFFF" d="M345.617,680.633c-0.678,0.378-1.056,1.026-1.569,1.591
		c-4.002,3.637-9.72,5.584-14.555,7.763c-3.494,1.696-6.631,3.963-10.542,3.963c-0.15-0.03-0.298-0.059-0.447-0.096
		c-6.484-2.841-13.438-5.124-19.639-8.537c-2.462-1.873-4.603-5.927-7.763-2.498c-1.02,1.799-4.969,5.927-1.711,7.317
		c0.684,0-1.191-1.197-0.089-2.231c0.327,0,0.691,0.543,1.033,0.744c1.42,0-0.364,1.383,0.953,1.383
		c1.947-0.461,3.642-0.141,5.642-0.126c-0.23-1.153-4.2-0.171-4.787-0.997c0-0.966,1.747-0.126,1.1-1.13
		c0-2.558,6.552,0.625,7.25,0.819c2.105,0.186,3.845,1.539,5.853,1.881c0.862,0.289,7.005,1.955,5.153,3.323
		c-1.845,0-4.105-1.167-5.741-1.985c-1.027-0.848-2.239-0.484-3.622-0.551c-0.602-0.483-4.484-1.814-4.991-1.308
		c1.614,1.152,4.352,1.219,6.277,2.111c0.9,0.283,1.8,0.275,2.461,0.886c1.911,0.936,3.883,1.844,5.816,2.787
		c0.558,0.558-0.491,1.785-0.989,2.127c-3.628,1.584-7.258,3.28-10.909,4.805c-0.631,0-1.108-0.298-1.731-0.298
		c-1.614,0.885-2.655,1.673-4.462,0.736c-0.944-0.862,0.908-1.926-0.625-3.16c-2.623-1.472-6.202,1.078-5.316,4.03
		c1.13-0.223,1.108-3.049,2.914-2.052c1.153-0.141,0.089,0.766-0.267,1.309c-0.423,0.945-0.55,1.777-0.35,2.788
		c-0.111,0.87-1.122,0.558-1.086,0.952c1.688,0.84,3.325-1.012,4.411,1.323c0.156,0.788,2.208,4.134,2.558,2.03
		c-0.431-0.193-0.588-0.245-0.827-0.647c-0.356-1.249-1.844-1.516-1.041-2.966c-0.059-1.056-3.027,0.84-3.027-1.934
		c0.595-1.079,2.952,0.066,3.323,0.743c0,1.377,0.856,0.498,1.622,0.12c1.531-0.193,2.142,0.379,3.414-0.788
		c2.684-1.502,5.13-3.064,8.172-3.473c1.1,0.409-2.373,2.907-2.736,3.13c-1.094,1.294,1.761-0.588,2.267-0.081
		c-0.119,1.434-0.573,2.52-1.539,3.569c-0.975,1.652,0.795,2.149,0.795,3.859c-1.606,4.283-3.094,9.109-1.636,13.645
		c0.127,2.61,4.894,7.503,7.667,7.503c1.138-0.625,1.123,0.566,2.073,1.041c4.292,0.996,10.181,0.78,14.486-0.446
		c6.18-3.228,8.834-9.177,8.098-15.995c-0.305-1.629,0.038-2.647-0.447-4.209c-0.453-1.07-0.891-2.119-1.241-3.227
		c0-3.361,0.356-3.02-1.727-5.444c-0.602-1.97,4.031,1.175,4.797,1.733c1.302,1.881,1.517,2.253,3.845,2.156
		c0.498,0.156,1.07,0.447,1.591,0.372c-0.617-2.908-3.881-0.156-4-3.041c-0.186-0.186-0.552-0.23-0.803-0.305
		c-3.191-1.629-6.589-3.168-9.966-4.357c-1.003-0.514-2.483-2.395-0.156-2.083c3.28,0.974,6.395,2.581,9.422,4.164
		c0.217,0.178,1.309,0.781,1.228,0.997c-0.945,0.632,1.152,0.193,1.345,0.193c0.484,0.335,0.766,0.528,1.07,1.019
		c0.239,2.447,1.123,0.677,2.498,1.859c0.595,0.78,1.428,0.743,1.644,1.651c1.406,0.104-0.081-0.811-0.081-1.331
		c0.587-0.825,1.852-1.316,2.848-1.316c3.97,1.777,6.342-4.239,4.186-6.939c-1.525-1.011-3.398-0.973-4.156,0.908
		c-1.019,4.336-3.808,3.198-7.153,2.067c-4.664-1.747-9.78-3.242-14.138-5.659c-1.636-1.308,2.766-2.253,3.302-3.145
		c-1.078-0.103-3.725,1.227-4.423,0.528c-2.714-0.044-1.242-0.624,0.163-1.465c0.134-0.171,0.275-0.341,0.417-0.52
		c5.28-2.602,10.559-4.573,15.72-7.243c1.761-0.572,2.58-1.45,2.647,0.736c0.461,0.313,1.955,1.272,0.908,1.644
		c-1.183,0-7.556,1.628-7.823,2.795c0.863,0,2.164-0.743,2.877-1.011c1.956-0.973,3.823-0.989,5.95-1.041
		c0.661-0.089,2.455-0.692,2.744-1.361c0-1.748-1.458,1.45-1.792,0.275c0.825-1.1,1.881-0.803,0.952-2.566
		c-0.386-1.852-1.434-1.086-0.305,0.261c0.439,1.055,0.008,1.709-1.353,1.709c-2.261-0.788,1.778-1.709-0.744-2.081
		c-0.722-0.402,0.044-1.695,0.833-1.592c1.503,0.677-0.423-1.814-1.175-2.081C346.181,680.655,345.898,680.647,345.617,680.633"/>
	<path id="path2416" d="M291.98,684.008c-1.509,1.206,2.164,3.295,2.045,0.773C293.527,684.373,292.611,684.247,291.98,684.008"/>
	<path id="path2418" d="M290.791,685.296c-0.923,0.565-2.045,1.97-0.069,1.405c-0.469,2.67,2.789,0.498,0.961-0.283
		c-1.406,0-0.409-0.073-0.484-1.041C291.139,685.325,291.139,685.325,290.791,685.296"/>
	<path id="path2420" d="M320.683,694.716c-1.353,0.975,0.908,1.793,0.908,0.44C321.397,694.716,321.114,694.746,320.683,694.716"/>
	<path id="path2422" d="M322.416,694.91c-1.331,0.722,1.138,1.302-0.773,1.874c-1.345-0.602-0.833,0.06-1.777,0.438
		c-1.458-1.138-2.239-0.252-2.484,1.258c-0.817,1.487,1.161,1.419,2,1.866c0.803,0,1.933-1.895,1.972-0.007
		c0.534,0.416,0.645-0.26,0.944-0.052c0.795,1.101,1.539-1.086,1.48,0.03c-0.498,1.42-0.089,1.413,0.639,2.587
		c0,1.785-2.313-2.721-2.423-1.539c0.038,0.052,0.073,0.112,0.119,0.172c1.763,1.055-2.067,5.376,0.386,5.986
		c0.075,1.041-1.48,3.346-0.534,4.075c1.614,0,0.334-2.305,1.041-3.361c0.603-0.528,2.484-1.845,3.272-1.845
		c1.881,0.469,4.239,0.186,4.588,2.559c0.194,0.535,0.38,2.602,1.242,2.134c0.275-0.729,0.15-3.666,1.361-3.205
		c2.655,1.986-1.197-6.335-3.547-5.086c0,0.699,1.747,1.569,0.186,1.569c-1.197-0.974,0.164-1.428-1.145-2.082
		c-2.38-0.505-2.795-1.591-2.908-3.948c-0.259-0.907-2.038-1.435-2.87-1.301c-0.698-0.313-0.706-1.398,0.119-1.288
		c0.991,1.175,1.05-0.906,0.253-0.535C323.42,695.766,322.833,695.014,322.416,694.91"/>
	<path id="path2424" d="M317.508,695.014c-0.706,0.505-0.111,0.788,0.417,0.349C317.925,695.044,317.775,695.074,317.508,695.014"/>
	<path id="path2426" d="M316.072,695.163c-0.505,0.402-0.253,0.528,0.186,0.818C316.756,695.958,316.444,695.268,316.072,695.163"/>
	<path id="path2428" d="M318.898,695.26c-0.752,1.034,1.331,1.302,0.445,0.081C319.248,695.289,319.248,695.289,318.898,695.26"/>
	<path id="path2430" d="M324.944,695.311c-0.803,0.357-0.022,1.019,0.587,1.019C326.981,697.401,325.523,695.624,324.944,695.311"/>
	<path id="path2432" d="M314.586,695.706c-1.048,0.468,0.833,1.427,0.906,0.134C315.195,695.796,314.891,695.75,314.586,695.706"/>
	<path id="path2434" d="M352.212,700.071c-0.461,0.617-0.633,0.439-0.58,1.339c-0.566,0.81-3.83,6.298-0.461,4.789
		c1.555-1.428,2.973-4.113,1.398-6.046C352.45,700.13,352.331,700.1,352.212,700.071"/>
	<path id="path2436" fill="#FFFFFF" d="M325.145,703.291c-0.105,0.72-0.834,1.167-0.059,1.62c1.041,1.272,1.011,0.261,0.952-0.825
		C325.116,704.019,325.941,703.55,325.145,703.291"/>
	<path id="path2438" fill="#FFFFFF" d="M325.984,703.64c0.023,0.201,0.023,0.238,0.202,0.298
		C326.186,703.7,326.216,703.729,325.984,703.64"/>
	<path id="path2440" d="M347.997,704.183c-1.303,0.617-2.194,1.272-3.727,1.167c-0.863,0.536,0.417,1.145,0.73,1.532
		C346.211,707.418,349.766,704.771,347.997,704.183"/>
	<path id="path2442" fill="#FFFFFF" d="M287.711,704.383c-0.445,0.581,0.044,1.934,0.698,1.979
		C288.409,705.566,288.253,704.964,287.711,704.383"/>
	<path id="path2444" fill="#FFFFFF" d="M324.148,704.725c-0.55,0.409,0.283,0.662,0.216,0.089
		C324.297,704.786,324.223,704.756,324.148,704.725"/>
	<path id="path2446" fill="#FFFFFF" d="M332.031,704.979c-0.328,0.164,0.863,2.432,0.863,1.234
		C332.633,705.625,332.581,705.254,332.031,704.979"/>
	<path id="path2448" fill="#FFFFFF" d="M303.231,705.373c-0.975,0.32-4.559,1.748-4.486,2.498c0.85,0.379,4.589-1.762,4.88-2.498
		C303.498,705.373,303.364,705.373,303.231,705.373"/>
	<path id="path2450" d="M314.236,705.968c-1.428,0.573-4.461,0.833-4.291,2.773c-0.2,0.536-0.566,1.666,0.342,1.212
		c0.402-0.558,0.803-1.256,1.019-1.525c0.952-0.691,4.633-0.817,4.633-1.881C315.397,706.288,314.823,706.079,314.236,705.968"/>
	<path id="path2452" d="M326.186,706.912c-0.483,0.201-0.609,0.342-0.9,0.766c-0.728,0.468-1.763,0.297-1.703,1.383
		c0.366,0.364,0.833-0.603,0.833-0.022c-0.669,0.966-1.003,1.844-0.291,2.952c0.625,0.178,0.142-2.03,0.714-2.714
		c0.744-0.431,1.22-0.245,1.317-1.168c0.439-0.632,2.722,0.58,1.873-0.87C327.494,707.001,326.773,706.986,326.186,706.912"/>
	<path id="path2454" fill="#FFFFFF" d="M296.634,707.105c-1.219,0.87-0.7,1.815,0.714,1.212
		C297.348,707.924,297.052,707.18,296.634,707.105"/>
	<path id="path2456" d="M320.831,708.347c-1.323,0.773-0.817,1.83-0.677,3.331C320.861,714.2,321.761,708.533,320.831,708.347"/>
	<path id="path2458" d="M333.622,709.091c-1.033,1.234-0.603,3.963,0.164,5.161c0,1.442,0.364,2.141,1.644,3.19
		c1.167,0-0.544-2.997-0.7-3.346c-0.081-1.056-0.431-1.867-0.744-2.878C333.98,711.077,334.128,709.188,333.622,709.091"/>
	<path id="path2460" d="M322.513,712.414c-1.159,0.952-1.286,2.975,0.283,3.584c0.038,0.395-2.038-0.03-2.789,0.216
		c-0.409-0.245,1.391-3.873-0.752-2.357c-0.655,1.42-2.275,3.332-4.022,2.752c-1.013,0,0.536-0.744-0.655-0.744
		c-1.369,0.349-1.941,0.454-3.212-0.201c-0.959,0,1.361,1.011,1.45,1.064c0,0.587-2.989,0.103-1.828,1.494
		c-0.053,1.212,0.141,1.509-1.109,1.509c-0.536-0.282,0.156-1.569-0.631-1.078c-0.811,2.499-1.198,2.967-0.484,5.481
		c0.789,0-0.283-2.269,2.15-2.12c0.075,0.417,0.075,0.417,0.178,0.633c1.219,0.914,0.528,2.825,0.981,4.202
		c0,0.334-0.878,2.9,0.045,2.788c0.439-0.438,0.364,1.19,0.364,1.435c1.353,0.744,0.855-1.569,2.052,0.127
		c0.789,0.647,0.864,0.922,1.927,0.922c0.669,0.275,1.852,1.48,2.528,0.803c0.267,0,0.402,0.186,0.714,0.186
		c0.744-0.811,1.427,1.063,2.566,0.104c0.327,0,0.386,0.431,0.758,0.387c0.231-0.23,0.231-0.23,0.581-0.439
		c2.847-0.461,5.539-0.802,7.845-2.632c0.297-0.476,0.364-0.773,0.883-0.885c3.214-2.662,2.991-5.361,2.991-9.094
		c0.647-1.741,1.063-0.625-0.423-2.365c-0.498-1.309-1.473-0.439-0.908,0.743c0.736,0.677-0.327,2.068,0.342,3.013
		c0,0.438-0.2,0.825-0.2,1.234c0.653,1.427-0.997,2.372-0.595,3.175c0,0.535-1.369,3.517-1.792,2.105
		c0.342-0.833,0.609-1.934,1.1-2.7c0-0.677,0.394-4.186-0.289-4.186c-0.18,0.565-0.239,2.602-0.73,2.766
		c-0.008-0.833,0.208-2.313-0.178-3.116c-1.308-0.609-1.161-0.945-1.584-2.357c0.164-1.063,0.997-0.833,0.997-2.038
		c-0.35-1.294,1.011-3.13-0.573-2.201c-0.72,0.208-2.469,0.372-2.877,1.092c-1.547,0.61-2.9-0.096-4.038-1.078
		C323.286,713.925,323.323,712.504,322.513,712.414"/>
	<path id="path2462" d="M332.878,714.646c-0.075,0.759,0.237,0.38,0.208,0.03C333.019,714.668,332.953,714.661,332.878,714.646"/>
	<path id="path2464" fill="#FFFFFF" d="M329.406,715.686c-0.573,0.328,0.58,0.64,0.556,0.083
		C329.852,715.716,329.852,715.716,329.406,715.686"/>
	<path id="path2466" d="M308.533,725.057c-0.498,1.509,0.469,0.884,0.216,0.081C308.689,725.086,308.689,725.086,308.533,725.057"/>
	<path id="path2468" d="M313.589,732.047c-0.008,0.134-0.016,0.268-0.03,0.402C313.923,733.304,314.578,732.374,313.589,732.047"/>
</g>
<path fill="#FFFFFF" d="M480.984,117.516c-1.27,0.437-2.744-0.833-2.744-0.833c-1.501,1.917-0.317,3.134-0.317,3.134
	c1.752,0.251,4.112,2.916,4.112,2.916c4.344,0.688,4.734,2.949,4.734,2.949c0.338,2.718-2.426,3.544-2.426,3.544
	s0.502,1.58-0.172,6.93c0,0,0.33,1.917,1.666,1.917c0,0,7.77-5.925,13.945-8.847l1.971-0.899c2.307-1.303,4.516,3.313,4.516,3.313
	c5.719,8.629,10.938,12.325,10.938,12.325c3.41,0.906,5.322,2.308,5.322,2.308c0.906,0.701,1.857,0.681,1.857,0.681
	c1.031-0.39,1.072-0.357,1.072-0.357c0.602,0.403-0.529,1.514-0.529,1.514c-0.801,0.906-1.799,0.563-1.799,0.563
	c-3.412-1.005-4.271-0.371-4.271-0.371c-3.736,1.184-3.154-0.933-3.154-0.933c0.199-1.203-0.906-1.805-0.906-1.805
	c-11.234-3.511-12.172-10.004-12.172-10.004c-0.662-2.07-1.369-0.82-1.369-0.82c-3.512,6.222-10.633,10.335-10.633,10.335
	c-4.906,5.621-9.43,3.022-9.43,3.022c-5.719-2.42-3.795-9.952-3.795-9.952c-0.1-7.327-3.393-10.884-3.393-10.884
	s-1.024,2.519-3.365,8.616c0,0-1.501,5.343-4.762,10.606c0,0,0.332,1.667,3.082,2.208c0,0-0.416,0.879-1.422,0.377
	c0,0-1.25-0.668-2.664-0.668c0,0-4.516,1.838-5.773,1.838c0,0-1.917-0.085,0-1.004c0,0,2.765-1.752,4.438-2.923
	c0,0,1.117-0.014,2.949-9.449c0,0,0.807-3.412,2.057-5.416c0,0,3.174-11.023,2.671-9.853c-3.438,8.027-12.609,3.63-12.609,3.63
	c9.185,0.502,10.435-8.894,10.435-8.894c-1.839,3.088-5.013,2.837-5.013,2.837c3.505-1.918,4.913-9.112,4.913-9.112
	c1.25-5.759,6.109-6.811,6.109-6.811s2.916-0.86,4.582,1.144c0,0,4.669,0.503,5.172,3.842c0,0,0.25,1.687-1.607,2.202l-0.039,0.912
	c0,0-0.715,0.595-0.477,0.985l0.674,1.342c0,0,0.635,0.595-0.436,0.833c0,0-0.43,0.199-0.179,0.595c0,0-0.192,0.45-0.927,0.218
	c0,0,0.576,0.251,0.457,0.734c0,0-0.112,0.258-0.396,0.225c0,0-0.377-0.113-0.43,0.258
	C481.467,116.557,481.805,117.231,480.984,117.516z"/>
<path fill="#FFFFFF" d="M311.768,116.537c-0.053-0.371-0.43-0.258-0.43-0.258c-0.284,0.033-0.396-0.225-0.396-0.225
	c-0.119-0.482,0.457-0.734,0.457-0.734c-0.734,0.231-0.927-0.218-0.927-0.218c0.252-0.396-0.178-0.595-0.178-0.595
	c-1.071-0.238-0.437-0.833-0.437-0.833l0.674-1.342c0.238-0.39-0.476-0.985-0.476-0.985l-0.04-0.912
	c-1.857-0.516-1.606-2.202-1.606-2.202c0.502-3.339,5.171-3.842,5.171-3.842c1.666-2.003,4.582-1.144,4.582-1.144
	s4.86,1.051,6.109,6.811c0,0,1.409,7.194,4.913,9.112c0,0-3.174,0.251-5.012-2.837c0,0,1.249,9.396,10.434,8.894
	c0,0-9.171,4.397-12.609-3.63c-0.502-1.17,2.672,9.853,2.672,9.853c1.249,2.003,2.056,5.416,2.056,5.416
	c1.832,9.435,2.949,9.449,2.949,9.449c1.673,1.17,4.438,2.923,4.438,2.923c1.917,0.919,0,1.004,0,1.004
	c-1.257,0-5.773-1.838-5.773-1.838c-1.414,0-2.664,0.668-2.664,0.668c-1.005,0.502-1.422-0.377-1.422-0.377
	c2.751-0.542,3.082-2.208,3.082-2.208c-3.261-5.263-4.762-10.606-4.762-10.606c-2.341-6.097-3.365-8.616-3.365-8.616
	s-3.293,3.557-3.393,10.884c0,0,1.925,7.531-3.795,9.952c0,0-4.522,2.598-9.429-3.022c0,0-7.121-4.113-10.633-10.335
	c0,0-0.707-1.25-1.369,0.82c0,0-0.938,6.493-12.173,10.004c0,0-1.104,0.602-0.906,1.805c0,0,0.582,2.116-3.153,0.933
	c0,0-0.859-0.635-4.271,0.371c0,0-0.998,0.343-1.799-0.563c0,0-1.131-1.111-0.529-1.514c0,0,0.04-0.033,1.071,0.357
	c0,0,0.952,0.02,1.858-0.681c0,0,1.911-1.402,5.322-2.308c0,0,5.218-3.696,10.938-12.325c0,0,2.209-4.616,4.516-3.313l1.971,0.899
	c6.176,2.922,13.945,8.847,13.945,8.847c1.336,0,1.666-1.917,1.666-1.917c-0.674-5.35-0.172-6.93-0.172-6.93
	s-2.764-0.827-2.427-3.544c0,0,0.391-2.261,4.734-2.949c0,0,2.36-2.665,4.112-2.916c0,0,1.184-1.216-0.316-3.134
	c0,0-1.475,1.27-2.745,0.833C311.411,117.231,311.748,116.557,311.768,116.537z"/>
<line fill="none" stroke="#FFFFFF" stroke-width="1.4173" stroke-miterlimit="10" x1="246.1" y1="160.056" x2="545.199" y2="160.056"/>
<g>
	<path fill="#FFFFFF" d="M271.045,261.338c0.053-0.146,0.226-0.696,0.517-1.646c0.292-0.953,0.679-2.207,1.155-3.762
		c0.476-1.558,1.033-3.35,1.67-5.382s1.326-4.229,2.069-6.591c0.742-2.36,1.524-4.833,2.349-7.413
		c0.82-2.582,1.631-5.171,2.426-7.771l-10.323,1.137c-0.806,0.112-1.424,0.089-1.854-0.075c-0.433-0.163-0.647-0.373-0.648-0.629
		c-0.002-0.255,0.185-0.521,0.561-0.797c0.375-0.276,0.967-0.471,1.773-0.583c0.322-0.036,1.518-0.233,3.588-0.59
		c2.068-0.355,4.688-0.813,7.859-1.375c1.061-3.367,2.068-6.616,3.023-9.748c0.955-3.13,1.816-5.93,2.586-8.401
		c0.769-2.471,1.392-4.521,1.869-6.151c0.477-1.628,0.742-2.607,0.795-2.937c0.155-1.024,0.663-1.648,1.523-1.871
		c0.859-0.223,1.734-0.144,2.623,0.236c0.889,0.381,1.645,1,2.268,1.857c0.621,0.856,0.801,1.853,0.537,2.988
		c-0.106,0.365-0.412,1.227-0.916,2.58c-0.506,1.355-1.156,3.059-1.955,5.109c-0.797,2.051-1.715,4.375-2.752,6.977
		c-1.038,2.6-2.115,5.329-3.232,8.183l42.566-7.567c1.504-0.262,2.555-0.101,3.148,0.481c0.594,0.584,0.785,1.286,0.574,2.11
		s-0.799,1.63-1.764,2.42s-2.281,1.298-3.947,1.524c-0.537,0.075-1.572,0.196-3.104,0.368c-1.533,0.17-3.415,0.368-5.646,0.598
		c-2.231,0.228-4.706,0.492-7.419,0.796c-2.717,0.305-5.539,0.607-8.468,0.91c-2.932,0.306-5.876,0.617-8.831,0.941
		c-2.957,0.32-5.78,0.615-8.468,0.882c-1.437,3.59-2.86,7.16-4.27,10.713c-1.41,3.553-2.714,6.839-3.911,9.86
		c-1.195,3.021-2.221,5.639-3.07,7.855c-0.852,2.215-1.438,3.761-1.756,4.642c8.174-0.289,16.846-0.633,26.016-1.033
		c9.168-0.401,18.443-0.886,27.828-1.452c9.383-0.567,18.725-1.252,28.027-2.055c9.303-0.805,18.172-1.771,26.612-2.9
		c1.291-0.189,2.259-0.165,2.905,0.07s1.037,0.581,1.174,1.038c0.137,0.456,0.018,0.978-0.355,1.564
		c-0.374,0.587-0.951,1.156-1.727,1.706c-0.777,0.553-1.719,1.041-2.818,1.465c-1.102,0.426-2.351,0.677-3.748,0.756
		c-8.873,0.618-17.786,1.129-26.74,1.529c-8.953,0.399-17.854,0.735-26.7,1.009c-8.847,0.271-17.56,0.514-26.138,0.73
		c-8.579,0.217-16.889,0.431-24.927,0.646c-8.041,0.214-15.772,0.454-23.193,0.722"/>
	<path fill="#FFFFFF" d="M270.35,194.039c0.321-0.037,1.76-0.244,4.313-0.62s5.832-0.854,9.837-1.438
		c4.004-0.581,8.532-1.239,13.587-1.972c5.052-0.732,10.211-1.484,15.48-2.254c5.269-0.771,10.454-1.53,15.563-2.282
		c5.105-0.75,9.727-1.427,13.867-2.028c4.139-0.601,7.579-1.106,10.32-1.521c2.74-0.413,4.381-0.656,4.919-0.732
		c1.505-0.261,2.554-0.127,3.148,0.399c0.593,0.528,0.783,1.176,0.573,1.945c-0.213,0.769-0.814,1.53-1.806,2.283
		c-0.993,0.754-2.294,1.242-3.907,1.469c-0.645,0.075-2.313,0.256-5,0.539c-2.689,0.285-6.035,0.637-10.04,1.055
		s-8.481,0.875-13.427,1.367c-4.948,0.496-9.975,0.998-15.082,1.514c-5.107,0.512-10.107,1.017-15,1.51
		c-4.893,0.496-9.288,0.942-13.186,1.34c-3.898,0.4-7.109,0.742-9.637,1.025c-2.527,0.284-3.979,0.445-4.354,0.482
		c-0.807,0.113-1.427,0.089-1.856-0.074c-0.432-0.164-0.646-0.371-0.648-0.629c-0.001-0.256,0.186-0.521,0.562-0.797
		C268.95,194.346,269.542,194.151,270.35,194.039z"/>
	<path fill="#FFFFFF" d="M370.557,231.718c-5.191,5.981-9.98,11.604-14.368,16.868c-4.388,5.263-8.255,9.995-11.597,14.196
		c-3.344,4.199-6.111,7.767-8.303,10.699c-2.193,2.935-3.636,5.043-4.33,6.325c-0.746,1.283-1.469,2.245-2.166,2.888
		c-0.695,0.643-1.285,1.002-1.77,1.076c-0.484,0.076-0.834-0.143-1.051-0.653c-0.218-0.512-0.168-1.28,0.15-2.304
		c0.105-0.44,0.479-1.309,1.117-2.61c0.641-1.302,1.428-2.886,2.359-4.754c0.934-1.868,2.014-3.976,3.24-6.321
		c1.229-2.345,2.508-4.791,3.842-7.337c1.333-2.548,2.679-5.14,4.039-7.776s2.681-5.184,3.961-7.639
		c-1.34,1.285-2.625,2.487-3.857,3.607s-2.222,1.992-2.973,2.616c-0.965,0.809-1.797,1.214-2.496,1.218
		c-0.699,0.002-1.264-0.215-1.697-0.652c-0.432-0.438-0.73-1.021-0.896-1.752c-0.165-0.731-0.194-1.461-0.091-2.194
		c0.42-2.67,1.08-5.251,1.984-7.741s1.996-4.678,3.279-6.567c1.282-1.887,2.714-3.366,4.297-4.433
		c1.582-1.066,3.287-1.548,5.117-1.445c1.505,0.104,2.57,0.538,3.191,1.304c0.621,0.765,0.962,1.643,1.021,2.629l1.601-2.968
		c0.8-1.393,1.776-2.302,2.933-2.728c1.152-0.423,2.202-0.483,3.146-0.176c0.941,0.306,1.629,0.89,2.064,1.747
		c0.434,0.857,0.33,1.855-0.311,2.99c-0.32,0.55-0.895,1.484-1.722,2.804c-0.829,1.32-1.817,2.859-2.965,4.62
		c-1.15,1.76-2.405,3.692-3.768,5.802c-1.362,2.108-2.739,4.216-4.128,6.324c-1.389,2.106-2.738,4.158-4.047,6.156
		c-1.309,1.999-2.499,3.796-3.567,5.391s-1.949,2.914-2.645,3.96c-0.694,1.044-1.094,1.657-1.202,1.84
		c0.108-0.183,0.535-0.732,1.284-1.65c0.75-0.916,1.684-2.081,2.808-3.492c1.123-1.412,2.42-3.035,3.893-4.869
		c1.471-1.836,3.009-3.742,4.613-5.721c1.605-1.982,3.223-3.981,4.856-5.998c1.631-2.019,3.209-3.952,4.734-5.807
		c1.524-1.852,2.941-3.549,4.254-5.089c1.311-1.542,2.421-2.808,3.331-3.799c0.749-0.881,1.473-1.467,2.171-1.764
		c0.698-0.295,1.222-0.362,1.573-0.198c0.35,0.164,0.486,0.539,0.408,1.123C371.801,230.05,371.359,230.803,370.557,231.718z
		 M344.353,235.604c-0.751,0.552-1.554,1.404-2.41,2.561c-0.855,1.154-1.643,2.391-2.363,3.711c-0.72,1.32-1.319,2.61-1.798,3.874
		s-0.717,2.278-0.713,3.047c1.072-1.028,2.237-2.139,3.495-3.332c1.258-1.192,2.49-2.377,3.695-3.552
		c1.206-1.174,2.343-2.276,3.415-3.305c1.07-1.027,1.98-1.908,2.73-2.644c0.052-0.439-0.031-0.858-0.247-1.26
		c-0.218-0.402-0.581-0.666-1.093-0.792c-0.512-0.124-1.17-0.079-1.976,0.146C346.283,234.28,345.371,234.797,344.353,235.604z"/>
	<path fill="#FFFFFF" d="M367.414,251.478c0.754,0.18,1.748,0.021,2.982-0.479c1.234-0.498,2.591-1.226,4.065-2.183
		c1.475-0.955,3.069-2.123,4.785-3.501s3.444-2.885,5.185-4.519c1.74-1.633,3.455-3.351,5.141-5.147
		c1.688-1.798,3.279-3.614,4.776-5.449c0.695-0.88,1.393-1.477,2.09-1.792c0.697-0.312,1.222-0.387,1.573-0.225
		c0.35,0.163,0.5,0.546,0.449,1.151c-0.053,0.604-0.479,1.364-1.281,2.281c-2.57,2.971-5.192,5.843-7.869,8.613
		c-2.678,2.773-5.342,5.225-7.995,7.354c-2.654,2.13-5.256,3.805-7.806,5.021c-2.549,1.217-4.981,1.738-7.294,1.563
		c-1.56-0.104-2.679-0.775-3.356-2.016s-1.008-2.811-0.988-4.714c0.018-1.899,0.332-3.995,0.938-6.282
		c0.61-2.288,1.448-4.532,2.513-6.729c1.067-2.198,2.309-4.214,3.727-6.05c1.416-1.833,2.931-3.228,4.54-4.185
		c1.34-0.809,2.602-1.309,3.785-1.497c1.182-0.187,2.244-0.108,3.188,0.235c0.941,0.345,1.711,0.918,2.307,1.719
		c0.595,0.803,0.975,1.788,1.143,2.957c0.221,1.646,0.027,3.384-0.582,5.214c-0.611,1.832-1.518,3.527-2.721,5.085
		c-1.204,1.559-2.639,2.872-4.3,3.939c-1.665,1.066-3.437,1.639-5.317,1.72c-1.508,0.041-2.664-0.228-3.474-0.81
		c-0.425,1.1-0.757,2.16-0.995,3.186c-0.236,1.024-0.381,1.932-0.432,2.718c-0.049,0.785,0.021,1.426,0.211,1.918
		C366.594,251.069,366.93,251.368,367.414,251.478z M377.321,229.224c-0.804,0.369-1.623,0.931-2.453,1.683
		c-0.831,0.754-1.62,1.624-2.368,2.615c-0.75,0.989-1.457,2.071-2.125,3.243c-0.668,1.175-1.268,2.346-1.8,3.52
		c1.079,0.616,2.249,0.675,3.511,0.177c1.261-0.498,2.374-1.326,3.338-2.48c0.963-1.155,1.656-2.52,2.08-4.096
		C377.927,232.312,377.865,230.757,377.321,229.224z"/>
	<path fill="#FFFFFF" d="M400.803,230.451c-0.316,1.206-0.365,2.351-0.146,3.428c0.221,1.078,0.574,2.119,1.063,3.121
		c0.488,1.005,1.03,1.989,1.626,2.956c0.596,0.968,1.11,1.943,1.546,2.93c1.716-1.397,3.79-3.205,6.229-5.428
		c2.437-2.221,4.78-4.67,7.027-7.351c0.748-0.879,1.459-1.477,2.131-1.79c0.67-0.313,1.193-0.389,1.572-0.227
		c0.376,0.165,0.526,0.547,0.448,1.15c-0.078,0.604-0.519,1.366-1.321,2.282c-3.318,3.889-6.262,6.955-8.836,9.194
		c-2.57,2.24-4.689,3.931-6.35,5.07c0.11,1.062-0.086,2.14-0.592,3.239c-0.508,1.099-1.482,2.272-2.93,3.522
		c-1.768,1.505-3.458,2.618-5.068,3.337s-2.967,1.08-4.069,1.085c-1.103,0.004-1.87-0.322-2.304-0.979s-0.41-1.589,0.068-2.798
		c0.373-0.842,1.135-1.75,2.287-2.724c1.153-0.973,2.345-1.863,3.579-2.674c1.448-0.956,3.029-1.876,4.748-2.761
		c0.212-0.623-0.007-1.406-0.655-2.356c-0.65-0.948-1.408-1.977-2.273-3.09c-0.866-1.112-1.718-2.26-2.557-3.446
		c-0.839-1.185-1.341-2.361-1.508-3.532c-0.385-2.155-0.071-3.931,0.945-5.324c1.015-1.393,2.22-2.375,3.617-2.947
		c1.396-0.573,2.713-0.733,3.951-0.482c1.238,0.252,1.913,0.926,2.026,2.021c0.056,0.696-0.115,1.317-0.517,1.867
		c-0.4,0.551-0.896,1.028-1.486,1.432C402.414,229.657,401.662,230.082,400.803,230.451z"/>
	<path fill="#FFFFFF" d="M422.576,227.788c1.182-0.079,2.647-0.148,4.395-0.21c1.749-0.062,3.698-0.214,5.849-0.461
		c2.149-0.247,4.447-0.667,6.893-1.261c2.444-0.595,4.981-1.463,7.613-2.607c2.629-1.144,4.604-1.69,5.923-1.642
		c1.317,0.051,2.031,0.432,2.143,1.144c0.11,0.713-0.355,1.647-1.398,2.803c-1.045,1.156-2.613,2.269-4.706,3.337
		c-1.45,0.773-3.032,1.649-4.749,2.625c-1.719,0.975-3.5,2.007-5.352,3.093s-3.701,2.197-5.553,3.338
		c-1.851,1.144-3.634,2.246-5.352,3.313c-4.022,2.538-8.1,5.152-12.229,7.836c3.008-1.034,5.691-2.052,8.055-3.049
		c2.361-0.995,4.617-1.809,6.767-2.438c2.149-0.629,4.271-1.003,6.368-1.122c2.099-0.117,4.412,0.204,6.943,0.961
		c0.909-0.88,1.914-1.854,3.013-2.919c1.098-1.063,2.236-2.184,3.414-3.358c1.178-1.176,2.356-2.377,3.534-3.607
		c1.178-1.229,2.303-2.431,3.373-3.604c0.803-0.882,1.539-1.47,2.211-1.765s1.195-0.361,1.572-0.199
		c0.378,0.162,0.514,0.538,0.409,1.124c-0.106,0.585-0.56,1.337-1.362,2.256c-2.729,3.118-5.313,5.962-7.748,8.53
		c-2.436,2.569-4.432,4.771-5.981,6.605c-0.644,0.734-1.3,1.275-1.972,1.626c-0.67,0.351-1.328,0.563-1.973,0.637
		c-0.645,0.077-1.237,0.043-1.775-0.101c-0.537-0.145-0.969-0.361-1.293-0.653c-0.324-0.328-1.268-0.59-2.827-0.785
		c-1.562-0.194-3.58-0.15-6.051,0.134c-2.474,0.282-5.335,0.916-8.585,1.898c-3.25,0.979-6.698,2.483-10.348,4.509
		c-1.127,0.625-2.066,0.985-2.82,1.079c-0.752,0.095-1.262-0.013-1.533-0.322c-0.27-0.31-0.258-0.785,0.033-1.426
		c0.294-0.641,0.949-1.385,1.967-2.229c0.483-0.404,1.246-1.02,2.292-1.847s2.238-1.772,3.578-2.839
		c1.34-1.064,2.788-2.214,4.343-3.445c1.553-1.23,3.107-2.452,4.662-3.665c3.645-2.83,7.585-5.936,11.82-9.316
		c-2.043,0.193-3.979,0.345-5.807,0.462c-1.56,0.116-3.188,0.196-4.881,0.237c-1.693,0.043-3.08,0.013-4.155-0.093
		c-0.754-0.069-1.278-0.231-1.575-0.488c-0.297-0.254-0.379-0.527-0.246-0.822c0.133-0.292,0.455-0.558,0.965-0.798
		C420.949,228.022,421.66,227.864,422.576,227.788z"/>
	<path fill="#FFFFFF" d="M457.208,251.129c0.753,0.181,1.747,0.021,2.983-0.476c1.234-0.499,2.589-1.227,4.065-2.184
		c1.474-0.956,3.068-2.123,4.785-3.502c1.714-1.377,3.442-2.884,5.185-4.517c1.739-1.634,3.455-3.35,5.141-5.149
		c1.686-1.797,3.278-3.614,4.775-5.45c0.696-0.879,1.393-1.476,2.091-1.789c0.697-0.313,1.222-0.39,1.573-0.226
		c0.35,0.163,0.498,0.547,0.447,1.149c-0.051,0.604-0.477,1.365-1.28,2.283c-2.568,2.971-5.191,5.844-7.869,8.613
		c-2.679,2.772-5.343,5.225-7.995,7.354c-2.653,2.132-5.256,3.806-7.804,5.022c-2.552,1.216-4.983,1.737-7.296,1.562
		c-1.561-0.103-2.678-0.775-3.358-2.015c-0.677-1.241-1.005-2.812-0.988-4.712c0.021-1.902,0.333-3.998,0.942-6.287
		c0.609-2.286,1.445-4.529,2.512-6.728c1.066-2.199,2.309-4.213,3.725-6.047c1.416-1.835,2.93-3.23,4.541-4.187
		c1.341-0.81,2.603-1.308,3.785-1.497c1.182-0.186,2.246-0.109,3.188,0.234c0.943,0.344,1.71,0.918,2.308,1.721
		c0.595,0.801,0.976,1.787,1.142,2.957c0.223,1.646,0.027,3.383-0.582,5.213c-0.61,1.831-1.518,3.525-2.721,5.084
		c-1.204,1.56-2.638,2.872-4.3,3.938s-3.437,1.641-5.317,1.722c-1.506,0.043-2.663-0.228-3.473-0.811
		c-0.426,1.099-0.757,2.161-0.994,3.185c-0.238,1.026-0.381,1.932-0.432,2.718c-0.051,0.787,0.02,1.426,0.209,1.92
		C456.387,250.722,456.724,251.021,457.208,251.129z M467.116,228.877c-0.806,0.369-1.624,0.931-2.453,1.682
		c-0.833,0.753-1.622,1.624-2.37,2.615c-0.75,0.991-1.457,2.073-2.123,3.245c-0.668,1.173-1.269,2.346-1.801,3.518
		c1.078,0.618,2.248,0.676,3.51,0.177s2.375-1.324,3.339-2.479c0.963-1.156,1.655-2.521,2.08-4.095
		C467.72,231.965,467.659,230.411,467.116,228.877z"/>
	<path fill="#FFFFFF" d="M513.677,231.166c-5.191,5.979-9.981,11.603-14.369,16.866c-4.388,5.263-8.253,9.995-11.595,14.196
		c-3.345,4.198-6.111,7.767-8.305,10.7c-2.191,2.934-3.635,5.044-4.329,6.325c-0.747,1.283-1.47,2.245-2.165,2.89
		c-0.695,0.641-1.287,1-1.771,1.075c-0.482,0.073-0.834-0.145-1.051-0.654c-0.218-0.511-0.168-1.281,0.15-2.305
		c0.107-0.438,0.479-1.309,1.119-2.609c0.639-1.301,1.426-2.887,2.359-4.754c0.934-1.869,2.014-3.975,3.239-6.319
		c1.228-2.348,2.508-4.792,3.841-7.34c1.335-2.546,2.681-5.139,4.04-7.776c1.361-2.637,2.681-5.184,3.962-7.639
		c-1.341,1.285-2.626,2.488-3.858,3.608c-1.231,1.12-2.222,1.992-2.973,2.616c-0.966,0.808-1.798,1.215-2.497,1.217
		c-0.698,0.003-1.264-0.215-1.697-0.651c-0.432-0.438-0.73-1.021-0.895-1.752c-0.164-0.731-0.193-1.462-0.09-2.194
		c0.419-2.671,1.08-5.251,1.982-7.743c0.904-2.488,1.996-4.678,3.28-6.565c1.282-1.889,2.715-3.366,4.297-4.433
		c1.581-1.067,3.288-1.55,5.116-1.445c1.506,0.104,2.572,0.539,3.193,1.303c0.621,0.767,0.962,1.644,1.02,2.631l1.601-2.971
		c0.8-1.391,1.777-2.3,2.934-2.725c1.154-0.424,2.203-0.486,3.146-0.177c0.94,0.307,1.629,0.89,2.063,1.747
		c0.434,0.857,0.33,1.855-0.31,2.99c-0.32,0.551-0.896,1.484-1.723,2.805c-0.828,1.318-1.816,2.858-2.965,4.618
		c-1.15,1.76-2.404,3.694-3.767,5.802c-1.361,2.109-2.738,4.216-4.127,6.324c-1.391,2.107-2.738,4.158-4.048,6.157
		c-1.31,1.998-2.498,3.795-3.566,5.39s-1.95,2.914-2.646,3.961c-0.695,1.043-1.095,1.658-1.203,1.84
		c0.108-0.182,0.535-0.733,1.285-1.649c0.75-0.918,1.685-2.082,2.808-3.494s2.42-3.034,3.892-4.869
		c1.471-1.834,3.011-3.74,4.615-5.721c1.604-1.982,3.223-3.982,4.854-5.997c1.631-2.018,3.211-3.954,4.735-5.807
		c1.525-1.852,2.941-3.55,4.254-5.091c1.31-1.54,2.42-2.807,3.331-3.797c0.749-0.882,1.473-1.468,2.171-1.765
		c0.696-0.295,1.223-0.361,1.572-0.197c0.35,0.162,0.487,0.538,0.408,1.122C514.92,229.496,514.479,230.249,513.677,231.166z
		 M487.473,235.051c-0.751,0.552-1.555,1.403-2.409,2.561c-0.855,1.155-1.644,2.392-2.363,3.712c-0.721,1.318-1.32,2.61-1.799,3.875
		c-0.479,1.264-0.716,2.278-0.714,3.046c1.072-1.028,2.236-2.139,3.496-3.332c1.258-1.192,2.492-2.377,3.695-3.554
		c1.205-1.173,2.342-2.275,3.414-3.304s1.98-1.908,2.732-2.643c0.052-0.439-0.031-0.858-0.248-1.26
		c-0.217-0.402-0.58-0.666-1.092-0.792c-0.513-0.126-1.17-0.078-1.977,0.145C489.403,233.728,488.49,234.243,487.473,235.051z"/>
	<path fill="#FFFFFF" d="M510.535,250.924c0.752,0.181,1.747,0.021,2.982-0.478c1.234-0.499,2.589-1.225,4.064-2.183
		c1.475-0.956,3.069-2.123,4.786-3.502c1.715-1.378,3.443-2.883,5.184-4.519c1.741-1.633,3.455-3.348,5.142-5.146
		c1.687-1.798,3.279-3.614,4.777-5.45c0.694-0.879,1.392-1.477,2.09-1.792c0.696-0.311,1.222-0.387,1.572-0.223
		c0.349,0.162,0.499,0.545,0.449,1.148c-0.052,0.604-0.479,1.364-1.281,2.283c-2.57,2.971-5.193,5.844-7.869,8.613
		c-2.679,2.772-5.344,5.223-7.997,7.354c-2.652,2.132-5.256,3.807-7.803,5.022c-2.551,1.215-4.982,1.734-7.295,1.563
		c-1.562-0.103-2.68-0.776-3.358-2.016c-0.678-1.241-1.006-2.812-0.988-4.714c0.02-1.899,0.333-3.995,0.941-6.284
		c0.608-2.286,1.445-4.53,2.513-6.728c1.065-2.2,2.309-4.214,3.725-6.049c1.416-1.833,2.93-3.229,4.539-4.187
		c1.342-0.81,2.604-1.308,3.786-1.496c1.182-0.186,2.245-0.109,3.188,0.235c0.941,0.344,1.71,0.917,2.308,1.719
		c0.594,0.801,0.976,1.788,1.142,2.957c0.222,1.645,0.026,3.384-0.582,5.214c-0.611,1.831-1.519,3.525-2.722,5.084
		s-2.637,2.872-4.3,3.938c-1.662,1.067-3.435,1.642-5.317,1.722c-1.506,0.042-2.663-0.228-3.473-0.812
		c-0.425,1.1-0.757,2.162-0.994,3.187c-0.237,1.025-0.381,1.931-0.433,2.717c-0.049,0.786,0.02,1.427,0.212,1.92
		C509.714,250.517,510.051,250.816,510.535,250.924z M520.442,228.671c-0.806,0.368-1.623,0.93-2.453,1.682
		c-0.831,0.753-1.62,1.625-2.369,2.614c-0.75,0.992-1.458,2.072-2.123,3.244c-0.668,1.175-1.27,2.348-1.802,3.52
		c1.079,0.618,2.249,0.676,3.511,0.178c1.262-0.499,2.374-1.326,3.339-2.48c0.962-1.156,1.653-2.521,2.079-4.096
		C521.046,231.759,520.985,230.205,520.442,228.671z"/>
</g>
<line fill="none" stroke="#FFFFFF" stroke-width="1.4173" stroke-miterlimit="10" x1="258.521" y1="296.649" x2="534.68" y2="296.649"/>
<g>
	<path fill="#FFFFFF" d="M379.316,336.372v1.323c0,0.86-0.037,1.618-0.113,2.274s-0.242,1.222-0.502,1.694
		c-0.344,0.646-0.76,1.124-1.246,1.436c-0.484,0.312-1.008,0.468-1.568,0.468c-0.67,0-1.295-0.183-1.877-0.548
		c-0.584-0.366-1.08-0.86-1.488-1.484c-0.584-0.903-0.994-1.452-1.23-1.646c-0.303-0.259-0.766-0.388-1.393-0.388
		c-0.344,0-0.668,0.248-0.971,0.742c-0.389,0.646-0.582,1.549-0.582,2.711h-0.549c0-2.775,0.615-4.861,1.848-6.261
		c0.668-0.774,1.791-1.494,3.367-2.161c1.102-0.475,1.922-1.251,2.463-2.33c0.539-1.078,0.809-2.318,0.809-3.721
		c0-1.229-0.227-2.459-0.68-3.688c-0.369-0.992-0.789-1.639-1.266-1.941c-0.346-0.216-0.854-0.323-1.523-0.323
		c-1.297,0-2.379,0.692-3.242,2.077c-0.754,1.212-1.129,2.467-1.129,3.763c0,0.259,0.01,0.441,0.031,0.549
		c0.105-0.301,0.25-0.526,0.43-0.678c0.182-0.15,0.398-0.226,0.654-0.226c0.318,0,0.604,0.124,0.859,0.371
		c0.254,0.248,0.436,0.618,0.541,1.113c0.043,0.15,0.064,0.354,0.064,0.613c0,0.581-0.16,1.076-0.479,1.484
		c-0.32,0.408-0.715,0.613-1.184,0.613c-0.234,0-0.438-0.043-0.607-0.13c-0.383-0.193-0.676-0.548-0.879-1.064
		s-0.303-1.14-0.303-1.872c0-1.678,0.461-3.194,1.387-4.549c1.098-1.592,2.549-2.389,4.355-2.389c2.324,0,4.055,0.904,5.195,2.711
		c0.84,1.334,1.26,2.883,1.26,4.646c0,1.42-0.303,2.507-0.904,3.259c-0.668,0.839-1.785,1.432-3.355,1.775
		c-2.41,0.538-4.033,1.14-4.873,1.807c-0.838,0.667-1.432,1.592-1.775,2.775c0.174-0.15,0.432-0.227,0.777-0.227
		c0.15,0,1.307,0.276,3.465,0.829c1.035,0.265,1.932,0.397,2.686,0.397c0.152,0,0.318-0.005,0.502-0.017
		c0.184-0.011,0.438-0.049,0.762-0.113c0.734-0.152,1.24-0.499,1.521-1.042c0.193-0.391,0.291-0.954,0.291-1.692
		c-0.021-0.455-0.033-0.791-0.033-1.008L379.316,336.372z"/>
	<path fill="#FFFFFF" d="M388.223,343.567c-1.785,0-3.346-0.957-4.68-2.871c-1.441-2.065-2.16-4.668-2.16-7.81
		c0-3.141,0.709-5.732,2.129-7.776c1.334-1.936,2.904-2.904,4.711-2.904s3.377,0.958,4.711,2.872
		c1.441,2.065,2.162,4.668,2.162,7.809c0,3.142-0.693,5.707-2.082,7.696C391.627,342.573,390.029,343.567,388.223,343.567z
		 M388.223,343.277c0.859,0,1.506-0.87,1.936-2.609s0.646-4.339,0.646-7.797c0-3.329-0.033-5.402-0.098-6.218
		c-0.215-2.771-1.043-4.156-2.484-4.156c-0.84,0-1.475,0.864-1.904,2.594c-0.43,1.729-0.645,4.322-0.645,7.78
		c0,3.351,0.031,5.435,0.096,6.25C385.984,341.893,386.803,343.277,388.223,343.277z"/>
	<path fill="#FFFFFF" d="M397.225,324.046c2.594,0,4.359-0.124,5.303-0.371s1.811-0.736,2.604-1.469h0.451v18.971
		c0,0.625,0.043,1.023,0.129,1.196c0.043,0.087,0.189,0.178,0.436,0.274c0.248,0.097,0.689,0.178,1.324,0.242
		c0.635,0.065,1.338,0.098,2.113,0.098v0.29h-12.359v-0.29c0.926,0,1.727-0.032,2.404-0.098c0.678-0.064,1.141-0.146,1.389-0.242
		c0.246-0.097,0.408-0.216,0.482-0.356c0.076-0.14,0.113-0.513,0.113-1.117v-15.024c0-0.583-0.059-0.955-0.178-1.117
		c-0.117-0.162-0.307-0.291-0.564-0.389c-0.258-0.097-0.645-0.162-1.162-0.194c-0.516-0.032-1.344-0.049-2.484-0.049V324.046z"/>
	<path fill="#FFFFFF" d="M421.104,331.468c0.969,0.236,1.764,0.866,2.387,1.888c0.625,1.021,0.938,2.242,0.938,3.662
		c0,1.678-0.582,3.151-1.744,4.421c-1.313,1.419-3.043,2.129-5.193,2.129c-1.916,0-3.529-0.634-4.842-1.903
		s-1.967-2.754-1.967-4.453c0-0.946,0.396-1.871,1.193-2.775c0.043-0.042,0.645-0.602,1.807-1.678
		c-0.732-0.43-1.291-1.017-1.678-1.759s-0.58-1.597-0.58-2.564c0-1.656,0.547-3.076,1.645-4.26c1.227-1.312,2.807-1.969,4.744-1.969
		c1.828,0,3.322,0.689,4.484,2.065c0.947,1.119,1.42,2.227,1.42,3.323C423.717,329.059,422.846,330.349,421.104,331.468z
		 M414.133,332.984c-0.504,0.43-0.855,1.092-1.055,1.984s-0.301,1.845-0.301,2.855c0,1.786,0.418,3.141,1.25,4.065
		c0.834,0.926,1.955,1.388,3.365,1.388c1.453,0,2.607-0.408,3.461-1.227c0.855-0.817,1.283-1.882,1.283-3.194
		c0-2.215-0.965-3.688-2.893-4.421C417.529,333.963,415.826,333.479,414.133,332.984z M420.748,331.306
		c0.375-0.473,0.689-1.037,0.943-1.693c0.252-0.656,0.381-1.35,0.381-2.082c0-1.721-0.453-3.021-1.355-3.904
		c-0.775-0.753-1.787-1.129-3.033-1.129c-1.184,0-2.195,0.339-3.033,1.017c-0.84,0.678-1.26,1.641-1.26,2.888
		c0,1.786,1.029,3.033,3.084,3.743C416.904,330.295,418.328,330.683,420.748,331.306z"/>
</g>
</svg>
