<?xml version="1.0" encoding="UTF-8"?>
<!-- Generator: Adobe Illustrator 18.0.0, SVG Export Plug-In . SVG Version: 6.00 Build 0)  -->
<!DOCTYPE svg PUBLIC "-//W3C//DTD SVG 1.1//EN" "http://www.w3.org/Graphics/SVG/1.1/DTD/svg11.dtd">
<svg version="1.1" id="Слой_1" xmlns="http://www.w3.org/2000/svg" xmlns:xlink="http://www.w3.org/1999/xlink" x="0px" y="0px" viewBox="0 44 1024 724" enable-background="new 0 44 1024 724" xml:space="preserve">
<path fill="#000000" d="M344.7,262.3  c-19.2,6.6-41.5-12.6-41.5-12.6c-22.7,29-4.8,47.4-4.8,47.4c26.5,3.8,62.2,44.1,62.2,44.1c65.7,10.4,71.6,44.6,71.6,44.6  c5.1,41.1-36.7,53.6-36.7,53.6s7.6,23.9-2.6,104.8c0,0,5,29,25.2,29c0,0,117.5-89.6,210.9-133.8l29.8-13.6  c34.9-19.7,68.3,50.1,68.3,50.1c86.5,130.5,165.4,186.4,165.4,186.4c51.6,13.7,80.5,34.9,80.5,34.9c13.7,10.6,28.1,10.3,28.1,10.3  c15.6-5.9,16.2-5.4,16.2-5.4c9.1,6.1-8,22.9-8,22.9c-12.1,13.7-27.2,8.5-27.2,8.5c-51.6-15.2-64.6-5.6-64.6-5.6  c-56.5,17.9-47.7-14.1-47.7-14.1c3-18.2-13.7-27.3-13.7-27.3C686.2,633.4,672,535.2,672,535.2c-10-31.3-20.7-12.4-20.7-12.4  c-53.1,94.1-160.8,156.3-160.8,156.3c-74.2,85-142.6,45.7-142.6,45.7c-86.5-36.6-57.4-150.5-57.4-150.5  c-1.5-110.8-51.3-164.6-51.3-164.6s-15.5,38.1-50.9,130.3c0,0-22.7,80.8-72,160.4c0,0,5,25.2,46.6,33.4c0,0-6.3,13.3-21.5,5.7  c0,0-18.9-10.1-40.3-10.1c0,0-68.3,27.8-87.3,27.8c0,0-29-1.3,0-15.2c0,0,41.8-26.5,67.1-44.2c0,0,16.9-0.2,44.6-142.9  c0,0,12.2-51.6,31.1-81.9c0,0,48-166.7,40.4-149c-52,121.4-190.7,54.9-190.7,54.9c138.9,7.6,157.8-134.5,157.8-134.5  c-27.8,46.7-75.8,42.9-75.8,42.9c53-29,74.3-137.8,74.3-137.8c18.9-87.1,92.4-103,92.4-103s44.1-13,69.3,17.3  c0,0,70.6,7.6,78.2,58.1c0,0,3.8,25.5-24.3,33.3l-0.6,13.8c0,0-10.8,9-7.2,14.9l10.2,20.3c0,0,9.6,9-6.6,12.6c0,0-6.5,3-2.7,9  c0,0-2.9,6.8-14,3.3c0,0,8.7,3.8,6.9,11.1c0,0-1.7,3.9-6,3.4c0,0-5.7-1.7-6.5,3.9C352,247.8,357.1,258,344.7,262.3z"/>
</svg>